<svg width="44" height="40" viewBox="0 0 44 40" fill="none" xmlns="http://www.w3.org/2000/svg">
<rect width="43.0868" height="40" rx="20" fill="#FCB707" fill-opacity="0.1"/>
<g clip-path="url(#clip0_464_3664)">
<path d="M16.3728 20C18.8732 20 20.8969 17.6516 20.8969 14.75C20.8969 11.8484 18.8732 9.5 16.3728 9.5C13.8724 9.5 11.8487 11.8484 11.8487 14.75C11.8487 17.6516 13.8724 20 16.3728 20ZM19.4751 21.5H19.1398C18.2996 21.9688 17.3665 22.25 16.3728 22.25C15.3791 22.25 14.4501 21.9688 13.6058 21.5H13.2706C10.7015 21.5 8.61719 23.9188 8.61719 26.9V28.25C8.61719 29.4922 9.48566 30.5 10.5561 30.5H22.1895C23.26 30.5 24.1284 29.4922 24.1284 28.25V26.9C24.1284 23.9188 22.0441 21.5 19.4751 21.5ZM28.0063 20C30.1471 20 31.8841 17.9844 31.8841 15.5C31.8841 13.0156 30.1471 11 28.0063 11C25.8654 11 24.1284 13.0156 24.1284 15.5C24.1284 17.9844 25.8654 20 28.0063 20ZM29.9452 21.5H29.7917C29.2302 21.725 28.6364 21.875 28.0063 21.875C27.3761 21.875 26.7823 21.725 26.2208 21.5H26.0673C25.2433 21.5 24.4839 21.7766 23.8174 22.2219C24.803 23.4547 25.421 25.0906 25.421 26.9V28.7C25.421 28.8031 25.4008 28.9016 25.3968 29H32.5304C33.6008 29 34.4693 27.9922 34.4693 26.75C34.4693 23.8484 32.4455 21.5 29.9452 21.5V21.5Z" fill="#FCBF07"/>
</g>
<defs>
<clipPath id="clip0_464_3664">
<rect width="25.8521" height="24" fill="white" transform="translate(8.61719 8)"/>
</clipPath>
</defs>
</svg>
