<svg width="44" height="40" viewBox="0 0 44 40" fill="none" xmlns="http://www.w3.org/2000/svg">
<rect width="43.0868" height="40" rx="20" fill="#FCB707" fill-opacity="0.1"/>
<path d="M20.408 11.216C22.12 11.216 23.488 11.664 24.512 12.56C25.552 13.456 26.072 14.72 26.072 16.352C26.072 17.856 25.576 19.032 24.584 19.88C23.608 20.712 22.312 21.136 20.696 21.152L20.576 22.952H16.976L16.856 18.488H18.296C19.528 18.488 20.464 18.336 21.104 18.032C21.76 17.728 22.088 17.176 22.088 16.376C22.088 15.816 21.936 15.376 21.632 15.056C21.328 14.736 20.904 14.576 20.36 14.576C19.784 14.576 19.336 14.744 19.016 15.08C18.696 15.4 18.536 15.84 18.536 16.4H14.672C14.64 15.424 14.84 14.544 15.272 13.76C15.72 12.976 16.376 12.36 17.24 11.912C18.12 11.448 19.176 11.216 20.408 11.216ZM18.824 29.192C18.104 29.192 17.512 28.984 17.048 28.568C16.6 28.136 16.376 27.608 16.376 26.984C16.376 26.344 16.6 25.808 17.048 25.376C17.512 24.944 18.104 24.728 18.824 24.728C19.528 24.728 20.104 24.944 20.552 25.376C21.016 25.808 21.248 26.344 21.248 26.984C21.248 27.608 21.016 28.136 20.552 28.568C20.104 28.984 19.528 29.192 18.824 29.192Z" fill="#FCBF07"/>
</svg>
