<svg width="44" height="45" viewBox="0 0 44 45" fill="none" xmlns="http://www.w3.org/2000/svg">
<rect y="0.0610352" width="44" height="44" rx="22" fill="#FCB707" fill-opacity="0.1"/>
<path d="M22 32.061C20.6333 32.061 19.3417 31.7984 18.125 31.273C16.9083 30.7484 15.846 30.0317 14.938 29.123C14.0293 28.215 13.3127 27.1527 12.788 25.936C12.2627 24.7194 12 23.4277 12 22.061C12 20.6777 12.2627 19.382 12.788 18.174C13.3127 16.9654 14.0293 15.907 14.938 14.999C15.846 14.0904 16.9083 13.3734 18.125 12.848C19.3417 12.3234 20.6333 12.061 22 12.061C23.3833 12.061 24.679 12.3234 25.887 12.848C27.0957 13.3734 28.154 14.0904 29.062 14.999C29.9707 15.907 30.6873 16.9654 31.212 18.174C31.7373 19.382 32 20.6777 32 22.061C32 23.4277 31.7373 24.7194 31.212 25.936C30.6873 27.1527 29.9707 28.215 29.062 29.123C28.154 30.0317 27.0957 30.7484 25.887 31.273C24.679 31.7984 23.3833 32.061 22 32.061ZM22 30.011C22.4333 29.411 22.8083 28.786 23.125 28.136C23.4417 27.486 23.7 26.7944 23.9 26.061H20.1C20.3 26.7944 20.5583 27.486 20.875 28.136C21.1917 28.786 21.5667 29.411 22 30.011ZM19.4 29.611C19.1 29.061 18.8377 28.49 18.613 27.898C18.3877 27.3067 18.2 26.6944 18.05 26.061H15.1C15.5833 26.8944 16.1873 27.6194 16.912 28.236C17.6373 28.8527 18.4667 29.311 19.4 29.611ZM24.6 29.611C25.5333 29.311 26.3623 28.8527 27.087 28.236C27.8123 27.6194 28.4167 26.8944 28.9 26.061H25.95C25.8 26.6944 25.6127 27.3067 25.388 27.898C25.1627 28.49 24.9 29.061 24.6 29.611ZM14.25 24.061H17.65C17.6 23.7277 17.5623 23.3984 17.537 23.073C17.5123 22.7484 17.5 22.411 17.5 22.061C17.5 21.711 17.5123 21.3737 17.537 21.049C17.5623 20.7237 17.6 20.3944 17.65 20.061H14.25C14.1667 20.3944 14.104 20.7237 14.062 21.049C14.0207 21.3737 14 21.711 14 22.061C14 22.411 14.0207 22.7484 14.062 23.073C14.104 23.3984 14.1667 23.7277 14.25 24.061ZM19.65 24.061H24.35C24.4 23.7277 24.4377 23.3984 24.463 23.073C24.4877 22.7484 24.5 22.411 24.5 22.061C24.5 21.711 24.4877 21.3737 24.463 21.049C24.4377 20.7237 24.4 20.3944 24.35 20.061H19.65C19.6 20.3944 19.5627 20.7237 19.538 21.049C19.5127 21.3737 19.5 21.711 19.5 22.061C19.5 22.411 19.5127 22.7484 19.538 23.073C19.5627 23.3984 19.6 23.7277 19.65 24.061ZM26.35 24.061H29.75C29.8333 23.7277 29.896 23.3984 29.938 23.073C29.9793 22.7484 30 22.411 30 22.061C30 21.711 29.9793 21.3737 29.938 21.049C29.896 20.7237 29.8333 20.3944 29.75 20.061H26.35C26.4 20.3944 26.4373 20.7237 26.462 21.049C26.4873 21.3737 26.5 21.711 26.5 22.061C26.5 22.411 26.4873 22.7484 26.462 23.073C26.4373 23.3984 26.4 23.7277 26.35 24.061ZM25.95 18.061H28.9C28.4167 17.2277 27.8123 16.5027 27.087 15.886C26.3623 15.2694 25.5333 14.811 24.6 14.511C24.9 15.061 25.1627 15.6317 25.388 16.223C25.6127 16.815 25.8 17.4277 25.95 18.061ZM20.1 18.061H23.9C23.7 17.3277 23.4417 16.636 23.125 15.986C22.8083 15.336 22.4333 14.711 22 14.111C21.5667 14.711 21.1917 15.336 20.875 15.986C20.5583 16.636 20.3 17.3277 20.1 18.061ZM15.1 18.061H18.05C18.2 17.4277 18.3877 16.815 18.613 16.223C18.8377 15.6317 19.1 15.061 19.4 14.511C18.4667 14.811 17.6373 15.2694 16.912 15.886C16.1873 16.5027 15.5833 17.2277 15.1 18.061Z" fill="#FCBF07"/>
</svg>
