<svg width="20" height="21" viewBox="0 0 20 21" fill="none" xmlns="http://www.w3.org/2000/svg">
<path d="M11.0002 0.0610352C8.23873 0.0610352 6.00015 2.29961 6.00015 5.06104C6.00015 5.61332 6.44787 6.06104 7.00015 6.06104C7.55244 6.06104 8.00015 5.61332 8.00015 5.06104C8.00015 3.40418 9.3433 2.06104 11.0002 2.06104H15.0002C16.657 2.06104 18.0002 3.40418 18.0002 5.06104V15.061C18.0002 16.7179 16.657 18.061 15.0002 18.061H11.0002C9.3433 18.061 8.00015 16.7179 8.00015 15.061C8.00015 14.5087 7.55244 14.061 7.00015 14.061C6.44787 14.061 6.00015 14.5087 6.00015 15.061C6.00015 17.8225 8.23873 20.061 11.0002 20.061H15.0002C17.7616 20.061 20.0002 17.8225 20.0002 15.061V5.06104C20.0002 2.29961 17.7616 0.0610352 15.0002 0.0610352H11.0002Z" fill="white"/>
<path d="M12.0002 9.06104C12.5524 9.06104 13.0002 9.50875 13.0002 10.061C13.0002 10.6133 12.5524 11.061 12.0002 11.061V9.06104Z" fill="white"/>
<path d="M3.71807 9.06104C3.80709 8.95127 3.89239 8.84475 3.97307 8.74299C4.21855 8.43338 4.42639 8.16145 4.57315 7.96653C4.6466 7.86898 4.70492 7.79049 4.7452 7.73596L4.79176 7.67266L4.80425 7.65558L4.80866 7.64952C4.8087 7.64946 4.80917 7.64882 4.00015 7.06104L4.80866 7.64952C5.13329 7.20271 5.03474 6.57664 4.58793 6.25202C4.14115 5.92741 3.51582 6.02643 3.19118 6.47318L3.18836 6.47705L3.17813 6.49106L3.13637 6.54782C3.09942 6.59785 3.0448 6.67136 2.9754 6.76354C2.83647 6.94806 2.63898 7.20645 2.40591 7.5004C1.93467 8.09474 1.33783 8.80914 0.793044 9.35393L0.0859375 10.061L0.793044 10.7681C1.33783 11.3129 1.93467 12.0273 2.40591 12.6217C2.63898 12.9156 2.83647 13.174 2.9754 13.3585C3.0448 13.4507 3.09942 13.5242 3.13637 13.5742L3.17813 13.631L3.18836 13.645L3.1907 13.6482C3.51534 14.095 4.14115 14.1947 4.58793 13.8701C5.03474 13.5454 5.13379 12.9201 4.80917 12.4733L4.00015 13.061C4.80917 12.4733 4.80921 12.4733 4.80917 12.4733L4.80425 12.4665L4.79176 12.4494L4.7452 12.3861C4.70492 12.3316 4.6466 12.2531 4.57315 12.1555C4.42639 11.9606 4.21855 11.6887 3.97307 11.3791C3.89239 11.2773 3.80709 11.1708 3.71807 11.061H12.0002V9.06104H3.71807Z" fill="white"/>
</svg>
