<svg width="44" height="40" viewBox="0 0 44 40" fill="none" xmlns="http://www.w3.org/2000/svg">
<rect width="43.0868" height="40" rx="20" fill="#FCB707" fill-opacity="0.1"/>
<path fill-rule="evenodd" clip-rule="evenodd" d="M19.2761 19.23C18.8049 19.23 18.4322 19.57 18.4322 20C18.4322 20.42 18.8049 20.77 19.2761 20.77H25.8519V25.55C25.8519 28 23.6709 30 20.9749 30H15.6375C12.9524 30 10.7715 28.01 10.7715 25.56V14.45C10.7715 11.99 12.9634 10 15.6485 10H20.9968C23.6709 10 25.8519 11.99 25.8519 14.44V19.23H19.2761ZM29.7622 16.5402L32.9076 19.4502C33.0691 19.6002 33.1553 19.7902 33.1553 20.0002C33.1553 20.2002 33.0691 20.4002 32.9076 20.5402L29.7622 23.4502C29.6006 23.6002 29.3852 23.6802 29.1805 23.6802C28.9651 23.6802 28.7497 23.6002 28.5881 23.4502C28.2649 23.1502 28.2649 22.6602 28.5881 22.3602L30.3116 20.7702H25.8521V19.2302H30.3116L28.5881 17.6402C28.2649 17.3402 28.2649 16.8502 28.5881 16.5502C28.9112 16.2402 29.4391 16.2402 29.7622 16.5402Z" fill="#FCBF07"/>
</svg>
