<svg width="44" height="45" viewBox="0 0 44 45" fill="none" xmlns="http://www.w3.org/2000/svg">
<rect y="0.0610352" width="44" height="44" rx="22" fill="#FCB707" fill-opacity="0.1"/>
<path d="M30.5472 16.6727L22.393 11.9649L22.393 11.9649C22.1498 11.8245 21.8502 11.8245 21.607 11.9649C21.607 11.9649 21.607 11.9649 21.607 11.9649L13.4528 16.6727C13.2096 16.8131 13.0598 17.0726 13.0598 17.3534V26.7691C13.0598 27.0499 13.2096 27.3094 13.4528 27.4498C13.4528 27.4498 13.4528 27.4498 13.4528 27.4498L21.607 32.1577C21.8502 32.2981 22.1498 32.2981 22.393 32.1577L30.5472 27.4498C30.5472 27.4498 30.5472 27.4498 30.5472 27.4498C30.7904 27.3094 30.9403 27.0499 30.9403 26.7691V17.3534C30.9403 17.0727 30.7905 16.8131 30.5472 16.6727C30.5472 16.6727 30.5472 16.6727 30.5472 16.6727ZM29.3682 17.8073V26.3153L22 30.5693L14.6318 26.3153V17.8073L22 13.5533L29.3682 17.8073Z" fill="#FCBF07" stroke="#FCBF07" stroke-width="0.4"/>
<path d="M19.2174 19.5923C18.8937 19.5923 18.6313 19.8547 18.6313 20.1783V22.5209L17.5614 19.9529C17.4704 19.7345 17.257 19.5923 17.0204 19.5923H16.3927C16.069 19.5923 15.8066 19.8547 15.8066 20.1783V23.9446C15.8355 24.7213 16.9502 24.7207 16.9787 23.9446V21.602L18.0487 24.17C18.1397 24.3884 18.3531 24.5306 18.5897 24.5306H19.2174C19.541 24.5306 19.8034 24.2682 19.8034 23.9446V20.1783C19.8034 19.8547 19.541 19.5923 19.2174 19.5923Z" fill="#FCBF07"/>
<path d="M20.8281 20.1783V23.9446C20.857 24.7213 21.9716 24.7207 22.0002 23.9446V22.9613H23.2556C24.0323 22.9325 24.0318 21.8178 23.2556 21.7893H22.0002V20.7644H23.8833C24.6601 20.7355 24.6595 19.6208 23.8833 19.5923H21.4142C21.0905 19.5923 20.8281 19.8547 20.8281 20.1783Z" fill="#FCBF07"/>
<path d="M25.4515 20.7644H26.1208V23.9446C26.1497 24.7213 27.2644 24.7207 27.2929 23.9446V20.7644H27.9623C28.739 20.7355 28.7384 19.6208 27.9623 19.5923H25.4514C24.6747 19.6211 24.6753 20.7358 25.4515 20.7644Z" fill="#FCBF07"/>
</svg>
