<svg width="44" height="45" viewBox="0 0 44 45" fill="none" xmlns="http://www.w3.org/2000/svg">
<rect y="0.0610352" width="44" height="44" rx="22" fill="#FCB707" fill-opacity="0.1"/>
<path d="M30.2134 25.8675C30.1393 25.7782 30.0666 25.689 29.9952 25.6029C29.0136 24.4156 28.4197 23.699 28.4197 20.3379C28.4197 18.5977 28.0034 17.1699 27.1829 16.0991C26.5778 15.308 25.76 14.7078 24.682 14.2643C24.6681 14.2566 24.6557 14.2465 24.6454 14.2344C24.2577 12.936 23.1966 12.0664 21.9999 12.0664C20.8033 12.0664 19.7427 12.936 19.3549 14.2331C19.3446 14.2447 19.3324 14.2545 19.3188 14.2621C16.8032 15.2977 15.5806 17.2846 15.5806 20.3365C15.5806 23.699 14.9876 24.4156 14.0051 25.6015C13.9337 25.6877 13.861 25.7751 13.7869 25.8661C13.5956 26.0969 13.4744 26.3776 13.4376 26.6751C13.4009 26.9725 13.4501 27.2743 13.5795 27.5447C13.8548 28.1247 14.4415 28.4848 15.1112 28.4848H28.8936C29.5602 28.4848 30.1429 28.1252 30.4191 27.5478C30.549 27.2774 30.5987 26.9753 30.5623 26.6775C30.5258 26.3797 30.4047 26.0986 30.2134 25.8675ZM21.9999 32.0557C22.6447 32.0551 23.2773 31.8801 23.8306 31.5492C24.384 31.2182 24.8374 30.7437 25.1429 30.1759C25.1573 30.1487 25.1644 30.1182 25.1635 30.0874C25.1627 30.0566 25.1539 30.0266 25.138 30.0003C25.1221 29.9739 25.0996 29.9521 25.0728 29.937C25.046 29.9219 25.0157 29.9139 24.9849 29.914H19.0158C18.985 29.9138 18.9547 29.9217 18.9278 29.9368C18.9009 29.9519 18.8784 29.9737 18.8625 30.0001C18.8465 30.0264 18.8377 30.0565 18.8368 30.0873C18.8359 30.1181 18.843 30.1486 18.8574 30.1759C19.1629 30.7436 19.6162 31.2181 20.1695 31.5491C20.7228 31.88 21.3553 32.0551 21.9999 32.0557Z" fill="#FCBF07"/>
</svg>
