<svg width="44" height="40" viewBox="0 0 44 40" fill="none" xmlns="http://www.w3.org/2000/svg">
<rect width="43.0868" height="40" rx="20" fill="#FCB707" fill-opacity="0.1"/>
<path fill-rule="evenodd" clip-rule="evenodd" d="M21.2498 29.9137C21.3691 29.9715 21.5025 30.0009 21.6358 30C21.7692 29.999 21.9015 29.9686 22.0219 29.9097L25.8651 28.0025C26.955 27.4631 27.8084 26.8601 28.4742 26.1579C29.922 24.6282 30.7125 22.6758 30.6984 20.6626L30.6529 14.022C30.6485 13.2571 30.1074 12.5746 29.3071 12.3265L22.1574 10.0996C21.7269 9.96424 21.2552 9.96718 20.8323 10.1064L13.7097 12.4128C12.9138 12.6707 12.3824 13.3581 12.3867 14.124L12.4323 20.7597C12.4464 22.7758 13.264 24.7194 14.7356 26.2335C15.408 26.9258 16.269 27.52 17.3708 28.0505L21.2498 29.9137ZM20.2324 22.1089C20.3929 22.2521 20.6011 22.3227 20.8093 22.3207C21.0175 22.3198 21.2246 22.2472 21.3829 22.1021L25.5829 18.2581C25.8985 17.9688 25.8953 17.504 25.5764 17.2187C25.2565 16.9333 24.7414 16.9353 24.4259 17.2245L20.7974 20.5449L19.3117 19.2191C18.9918 18.9337 18.4778 18.9367 18.1611 19.226C17.8455 19.5152 17.8488 19.98 18.1687 20.2654L20.2324 22.1089Z" fill="#FCBF07"/>
</svg>
