<svg width="44" height="45" viewBox="0 0 44 45" fill="none" xmlns="http://www.w3.org/2000/svg">
<rect y="0.0610352" width="44" height="44" rx="22" fill="#FCB707" fill-opacity="0.1"/>
<path fill-rule="evenodd" clip-rule="evenodd" d="M30.4023 23.641C30.76 23.831 31.036 24.131 31.2301 24.431C31.6083 25.051 31.5776 25.811 31.2097 26.481L30.4943 27.681C30.1162 28.321 29.411 28.721 28.6855 28.721C28.3278 28.721 27.9292 28.621 27.6022 28.421C27.3365 28.251 27.0299 28.191 26.7029 28.191C25.6911 28.191 24.8429 29.021 24.8122 30.011C24.8122 31.161 23.872 32.061 22.6968 32.061H21.3069C20.1215 32.061 19.1813 31.161 19.1813 30.011C19.1608 29.021 18.3126 28.191 17.3009 28.191C16.9636 28.191 16.657 28.251 16.4015 28.421C16.0745 28.621 15.6657 28.721 15.3183 28.721C14.5824 28.721 13.8773 28.321 13.4992 27.681L12.794 26.481C12.4159 25.831 12.3955 25.051 12.7736 24.431C12.9371 24.131 13.2437 23.831 13.5911 23.641C13.8773 23.501 14.0612 23.271 14.235 23.001C14.746 22.141 14.4394 21.011 13.5707 20.501C12.559 19.931 12.2319 18.661 12.8145 17.671L13.4992 16.491C14.0919 15.501 15.3591 15.151 16.3811 15.731C17.2702 16.211 18.425 15.891 18.9462 15.041C19.1097 14.761 19.2017 14.461 19.1813 14.161C19.1608 13.771 19.2732 13.401 19.4674 13.101C19.8455 12.481 20.5302 12.081 21.2763 12.061H22.7172C23.4735 12.061 24.1582 12.481 24.5363 13.101C24.7203 13.401 24.8429 13.771 24.8122 14.161C24.7918 14.461 24.8838 14.761 25.0473 15.041C25.5685 15.891 26.7233 16.211 27.6226 15.731C28.6344 15.151 29.9118 15.501 30.4943 16.491L31.179 17.671C31.7718 18.661 31.4447 19.931 30.4228 20.501C29.5541 21.011 29.2475 22.141 29.7687 23.001C29.9322 23.271 30.1162 23.501 30.4023 23.641ZM19.1097 22.071C19.1097 23.641 20.4076 24.891 22.0121 24.891C23.6165 24.891 24.8838 23.641 24.8838 22.071C24.8838 20.501 23.6165 19.241 22.0121 19.241C20.4076 19.241 19.1097 20.501 19.1097 22.071Z" fill="#FCBF07"/>
</svg>
