<svg width="44" height="40" viewBox="0 0 44 40" fill="none" xmlns="http://www.w3.org/2000/svg">
<rect width="43.0868" height="40" rx="20" fill="#FCB707" fill-opacity="0.1"/>
<path d="M29.6229 11H13.4654C13.0368 11 12.6259 11.158 12.3229 11.4393C12.0198 11.7206 11.8496 12.1022 11.8496 12.5V27.5C11.8496 27.8978 12.0198 28.2794 12.3229 28.5607C12.6259 28.842 13.0368 29 13.4654 29H29.6229C30.0514 29 30.4624 28.842 30.7654 28.5607C31.0684 28.2794 31.2387 27.8978 31.2387 27.5V12.5C31.2387 12.1022 31.0684 11.7206 30.7654 11.4393C30.4624 11.158 30.0514 11 29.6229 11Z" stroke="#FCBF07" stroke-width="2" stroke-linecap="round" stroke-linejoin="round"/>
<path d="M16.1582 19.5H20.4669M19.9283 23.5L22.6212 25.5L26.9299 20.5L19.9283 23.5ZM16.1582 15.5H26.9299H16.1582Z" stroke="#FCBF07" stroke-width="2" stroke-linecap="round" stroke-linejoin="round"/>
</svg>
