<svg width="44" height="45" viewBox="0 0 44 45" fill="none" xmlns="http://www.w3.org/2000/svg">
<rect y="0.0610352" width="44" height="44" rx="22" fill="#FCB707" fill-opacity="0.1"/>
<path fill-rule="evenodd" clip-rule="evenodd" d="M12 18.061C12 15.8519 13.7909 14.061 16 14.061H28C30.2091 14.061 32 15.8519 32 18.061V19.061V25.061V26.061C32 28.2702 30.2091 30.061 28 30.061H16C13.7909 30.061 12 28.2702 12 26.061V18.061ZM28 16.061C29.1046 16.061 30 16.9565 30 18.061H28C25.7909 18.061 24 19.8519 24 22.061C24 24.2702 25.7909 26.061 28 26.061H30C30 27.1656 29.1046 28.061 28 28.061H16C14.8954 28.061 14 27.1656 14 26.061V18.061C14 16.9565 14.8954 16.061 16 16.061H28ZM28 20.061H30V24.061H28C26.8954 24.061 26 23.1656 26 22.061C26 20.9565 26.8954 20.061 28 20.061ZM28 23.061C28.5523 23.061 29 22.6133 29 22.061C29 21.5088 28.5523 21.061 28 21.061C27.4477 21.061 27 21.5088 27 22.061C27 22.6133 27.4477 23.061 28 23.061Z" fill="#FCBF07"/>
</svg>
