<svg width="26" height="24" viewBox="0 0 26 24" fill="none" xmlns="http://www.w3.org/2000/svg">
<path fill-rule="evenodd" clip-rule="evenodd" d="M24.4284 10.4685C25.3743 10.4685 25.7693 9.25314 25.0008 8.6929L13.3093 0.188277C12.9666 -0.062759 12.5008 -0.062759 12.1582 0.188277L0.46663 8.6929C-0.301786 9.25008 0.0931367 10.4685 1.04218 10.4685H2.9372V21.9182H0.732973C0.598271 21.9182 0.48806 22.0284 0.48806 22.1631V23.7551C0.48806 23.8898 0.598271 24 0.732973 24H24.7345C24.8692 24 24.9794 23.8898 24.9794 23.7551V22.1631C24.9794 22.0284 24.8692 21.9182 24.7345 21.9182H22.5303V10.4685H24.4284ZM12.7337 2.34658L21.0332 8.3837H4.43423L12.7337 2.34658ZM8.72328 10.4685H5.14142V21.9182H8.72328V10.4685ZM10.9275 10.4685H14.5094V21.9182H10.9275V10.4685ZM16.7136 21.9182H20.3261V10.4685H16.7136V21.9182Z" fill="#5D5FEF"/>
</svg>
