<svg width="26" height="24" viewBox="0 0 26 24" fill="none" xmlns="http://www.w3.org/2000/svg">
<path fill-rule="evenodd" clip-rule="evenodd" d="M24.9284 10.4685C25.8743 10.4685 26.2693 9.25314 25.5008 8.6929L13.8093 0.188277C13.4666 -0.062759 13.0008 -0.062759 12.6582 0.188277L0.96663 8.6929C0.198214 9.25008 0.593137 10.4685 1.54218 10.4685H3.4372V21.9182H1.23297C1.09827 21.9182 0.98806 22.0284 0.98806 22.1631V23.7551C0.98806 23.8898 1.09827 24 1.23297 24H25.2345C25.3692 24 25.4794 23.8898 25.4794 23.7551V22.1631C25.4794 22.0284 25.3692 21.9182 25.2345 21.9182H23.0303V10.4685H24.9284ZM13.2337 2.34658L21.5332 8.3837H4.93423L13.2337 2.34658ZM9.22328 10.4685H5.64142V21.9182H9.22328V10.4685ZM11.4275 10.4685H15.0094V21.9182H11.4275V10.4685ZM17.2136 21.9182H20.8261V10.4685H17.2136V21.9182Z" fill="white"/>
</svg>
