<svg width="22" height="20" viewBox="0 0 22 20" fill="none" xmlns="http://www.w3.org/2000/svg">
<path d="M19.6173 0.0390625H2.7856C1.62316 0.0390625 0.681641 1.15344 0.681641 2.5293V17.4707C0.681641 18.8466 1.62316 19.9609 2.7856 19.9609H19.6173C20.7797 19.9609 21.7212 18.8466 21.7212 17.4707V2.5293C21.7212 1.15344 20.7797 0.0390625 19.6173 0.0390625ZM5.94154 16.2256H3.83758V13.7354H5.94154V16.2256ZM6.99352 7.50977H3.83758V3.77441H6.99352V7.50977ZM10.1495 16.2256H8.0455V13.7354H10.1495V16.2256ZM14.3574 16.2256H12.2534V13.7354H14.3574V16.2256ZM18.5653 16.2256H16.4613V13.7354H18.5653V16.2256ZM18.5653 7.50977H12.2534V5.01953H18.5653V7.50977Z" fill="#5D5FEF"/>
</svg>
