<svg width="26" height="24" viewBox="0 0 26 24" fill="none" xmlns="http://www.w3.org/2000/svg">
<path d="M17.9294 0L17.6445 0.416555L13.1324 7.03338L9.22202 8.20294C8.70353 8.36115 8.2642 8.7036 7.97132 9.16422L4.72582 14.243L6.78394 21.3084L10.5361 20.4753C10.631 20.4553 10.726 20.4212 10.821 20.3952C11.7393 20.0828 12.5427 19.52 13.1483 18.745L13.6232 18.0561L15.7763 19.5781L16.188 19.8665L16.4888 19.4339L25.6395 6.00801L25.9403 5.59146L25.5128 5.30307L18.3569 0.288385L17.9294 0ZM18.1986 1.4259L24.5313 5.86382L20.9691 11.0868C21.4025 9.6028 20.7099 7.80841 19.1802 6.74499C18.3035 6.13618 17.2843 5.8518 16.2988 5.94393C15.717 5.998 15.1925 6.18024 14.7473 6.47263L18.1986 1.4259ZM20.3042 4.48598C20.0331 4.48398 19.7719 4.61015 19.6076 4.85447C19.3444 5.24299 19.4434 5.78772 19.8293 6.05607C20.2151 6.32443 20.7376 6.22029 21.0008 5.83178C21.264 5.44326 21.1651 4.91455 20.7792 4.64619C20.6347 4.54606 20.4665 4.48798 20.3042 4.48598ZM13.4491 8.37917C13.3007 9.09212 13.3956 9.87517 13.7182 10.6061L14.114 10.2537C14.5751 9.87316 15.1648 9.6769 15.7605 9.6769C16.4314 9.6769 17.0646 9.92724 17.5495 10.3979C18.3411 11.1649 18.5528 12.3204 18.1511 13.2977C18.818 13.2397 19.4176 13.0033 19.9084 12.6248L15.9347 18.4406L14.209 17.239L16.9954 13.2817C17.498 12.6348 17.4387 11.7036 16.8529 11.1348C16.277 10.5761 15.3805 10.5441 14.7631 11.0547L11.8976 13.474L10.7102 12.753L13.4491 8.37917ZM3.68093 14.3071L0.59375 15.2684L3.14265 24L6.24566 23.0387L3.68093 14.3071Z" fill="#5D5FEF"/>
</svg>
