<svg width="26" height="24" viewBox="0 0 26 24" fill="none" xmlns="http://www.w3.org/2000/svg">
<path d="M17.4294 0L17.1445 0.416555L12.6324 7.03338L8.72202 8.20294C8.20353 8.36115 7.7642 8.7036 7.47132 9.16422L4.22582 14.243L6.28394 21.3084L10.0361 20.4753C10.131 20.4553 10.226 20.4212 10.321 20.3952C11.2393 20.0828 12.0427 19.52 12.6483 18.745L13.1232 18.0561L15.2763 19.5781L15.688 19.8665L15.9888 19.4339L25.1395 6.00801L25.4403 5.59146L25.0128 5.30307L17.8569 0.288385L17.4294 0ZM17.6986 1.4259L24.0313 5.86382L20.4691 11.0868C20.9025 9.6028 20.2099 7.80841 18.6802 6.74499C17.8035 6.13618 16.7843 5.8518 15.7988 5.94393C15.217 5.998 14.6925 6.18024 14.2473 6.47263L17.6986 1.4259ZM19.8042 4.48598C19.5331 4.48398 19.2719 4.61015 19.1076 4.85447C18.8444 5.24299 18.9434 5.78772 19.3293 6.05607C19.7151 6.32443 20.2376 6.22029 20.5008 5.83178C20.764 5.44326 20.6651 4.91455 20.2792 4.64619C20.1347 4.54606 19.9665 4.48798 19.8042 4.48598ZM12.9491 8.37917C12.8007 9.09212 12.8956 9.87517 13.2182 10.6061L13.614 10.2537C14.0751 9.87316 14.6648 9.6769 15.2605 9.6769C15.9314 9.6769 16.5646 9.92724 17.0495 10.3979C17.8411 11.1649 18.0528 12.3204 17.6511 13.2977C18.318 13.2397 18.9176 13.0033 19.4084 12.6248L15.4347 18.4406L13.709 17.239L16.4954 13.2817C16.998 12.6348 16.9387 11.7036 16.3529 11.1348C15.777 10.5761 14.8805 10.5441 14.2631 11.0547L11.3976 13.474L10.2102 12.753L12.9491 8.37917ZM3.18093 14.3071L0.09375 15.2684L2.64265 24L5.74566 23.0387L3.18093 14.3071Z" fill="white"/>
</svg>
