<svg width="45" height="45" viewBox="0 0 45 45" fill="none" xmlns="http://www.w3.org/2000/svg">
<path d="M39.5694 27.9259C37.6087 27.9259 35.7282 28.7048 34.3418 30.0913C32.9553 31.4777 32.1764 33.3582 32.1764 35.3189M32.1764 13.3779C32.1764 15.3387 32.9553 17.2191 34.3418 18.6056C35.7282 19.992 37.6087 20.7709 39.5694 20.7709M1.73047 20.7709C3.69121 20.7709 5.57164 19.992 6.9581 18.6056C8.34455 17.2191 9.12345 15.3387 9.12345 13.3779M9.12345 35.3189C9.12345 34.348 8.93222 33.3867 8.56069 32.4897C8.18916 31.5928 7.6446 30.7778 6.9581 30.0913C6.27159 29.4048 5.4566 28.8602 4.55964 28.4887C3.66268 28.1171 2.70133 27.9259 1.73047 27.9259" fill="#F8FBFC"/>
<path d="M39.5694 27.9259C37.6087 27.9259 35.7282 28.7048 34.3418 30.0913C32.9553 31.4777 32.1764 33.3582 32.1764 35.3189M32.1764 13.3779C32.1764 15.3387 32.9553 17.2191 34.3418 18.6056C35.7282 19.992 37.6087 20.7709 39.5694 20.7709M1.73047 20.7709C3.69121 20.7709 5.57164 19.992 6.9581 18.6056C8.34455 17.2191 9.12345 15.3387 9.12345 13.3779M9.12345 35.3189C9.12345 34.348 8.93222 33.3867 8.56069 32.4897C8.18916 31.5928 7.6446 30.7778 6.9581 30.0913C6.27159 29.4048 5.4566 28.8602 4.55964 28.4887C3.66268 28.1171 2.70133 27.9259 1.73047 27.9259" stroke="black" stroke-width="2" stroke-miterlimit="10" stroke-linecap="round" stroke-linejoin="round"/>
<path d="M1.73047 13.3779H39.5694V35.3189H1.73047V13.3779ZM23.475 21.5238C23.475 20.9652 23.3093 20.4191 22.999 19.9546C22.6887 19.4901 22.2476 19.1281 21.7315 18.9143C21.2154 18.7005 20.6475 18.6445 20.0996 18.7534C19.5517 18.8623 19.0484 19.1312 18.6534 19.5262C18.2583 19.9211 17.9892 20.4243 17.8801 20.9722C17.771 21.5201 17.8269 22.088 18.0405 22.6041C18.2542 23.1203 18.6161 23.5615 19.0805 23.872C19.5449 24.1824 20.0909 24.3482 20.6495 24.3484M17.8249 27.173C17.8249 27.7317 17.9906 28.2778 18.3009 28.7423C18.6113 29.2068 19.0524 29.5688 19.5686 29.7826C20.0847 29.9964 20.6526 30.0524 21.2006 29.9434C21.7485 29.8344 22.2518 29.5654 22.6468 29.1703C23.0418 28.7753 23.3109 28.272 23.4198 27.7241C23.5288 27.1762 23.4729 26.6082 23.2591 26.0921C23.0453 25.576 22.6833 25.1348 22.2188 24.8244C21.7543 24.5141 21.2082 24.3484 20.6495 24.3484M20.6495 17.5655V31.1313V17.5655Z" fill="#F8FBFC"/>
<path d="M23.475 21.5238C23.475 20.9652 23.3093 20.4191 22.999 19.9546C22.6887 19.4901 22.2476 19.1281 21.7315 18.9143C21.2154 18.7005 20.6475 18.6445 20.0996 18.7534C19.5517 18.8623 19.0484 19.1312 18.6534 19.5262C18.2583 19.9211 17.9892 20.4243 17.8801 20.9722C17.771 21.5201 17.8269 22.088 18.0405 22.6041C18.2542 23.1203 18.6161 23.5615 19.0805 23.872C19.5449 24.1824 20.0909 24.3482 20.6495 24.3484M17.8249 27.173C17.8249 27.7317 17.9906 28.2778 18.3009 28.7423C18.6113 29.2068 19.0524 29.5688 19.5686 29.7826C20.0847 29.9964 20.6526 30.0524 21.2006 29.9434C21.7485 29.8344 22.2518 29.5654 22.6468 29.1703C23.0418 28.7753 23.3109 28.272 23.4198 27.7241C23.5288 27.1762 23.4729 26.6082 23.2591 26.0921C23.0453 25.576 22.6833 25.1348 22.2188 24.8244C21.7543 24.5141 21.2082 24.3484 20.6495 24.3484M20.6495 17.5655V31.1313M1.73047 13.3779H39.5694V35.3189H1.73047V13.3779Z" stroke="black" stroke-width="2" stroke-miterlimit="10" stroke-linecap="round" stroke-linejoin="round"/>
<path d="M39.5694 27.9259C37.6087 27.9259 35.7282 28.7048 34.3418 30.0913C32.9553 31.4777 32.1764 33.3582 32.1764 35.3189M32.1764 13.3779C32.1764 15.3387 32.9553 17.2191 34.3418 18.6056C35.7282 19.992 37.6087 20.7709 39.5694 20.7709M1.73047 20.7709C3.69121 20.7709 5.57164 19.992 6.9581 18.6056C8.34455 17.2191 9.12345 15.3387 9.12345 13.3779M9.12345 35.3189C9.12345 34.348 8.93222 33.3867 8.56069 32.4897C8.18916 31.5928 7.6446 30.7778 6.9581 30.0913C6.27159 29.4048 5.4566 28.8602 4.55964 28.4887C3.66268 28.1171 2.70133 27.9259 1.73047 27.9259" fill="#F8FBFC"/>
<path d="M39.5694 27.9259C37.6087 27.9259 35.7282 28.7048 34.3418 30.0913C32.9553 31.4777 32.1764 33.3582 32.1764 35.3189M32.1764 13.3779C32.1764 15.3387 32.9553 17.2191 34.3418 18.6056C35.7282 19.992 37.6087 20.7709 39.5694 20.7709M1.73047 20.7709C3.69121 20.7709 5.57164 19.992 6.9581 18.6056C8.34455 17.2191 9.12345 15.3387 9.12345 13.3779M9.12345 35.3189C9.12345 34.348 8.93222 33.3867 8.56069 32.4897C8.18916 31.5928 7.6446 30.7778 6.9581 30.0913C6.27159 29.4048 5.4566 28.8602 4.55964 28.4887C3.66268 28.1171 2.70133 27.9259 1.73047 27.9259" stroke="black" stroke-width="2" stroke-miterlimit="10" stroke-linecap="round" stroke-linejoin="round"/>
<path d="M1.73047 13.3779H39.5694V35.3189H1.73047V13.3779ZM23.475 21.5238C23.475 20.9652 23.3093 20.4191 22.999 19.9546C22.6887 19.4901 22.2476 19.1281 21.7315 18.9143C21.2154 18.7005 20.6475 18.6445 20.0996 18.7534C19.5517 18.8623 19.0484 19.1312 18.6534 19.5262C18.2583 19.9211 17.9892 20.4243 17.8801 20.9722C17.771 21.5201 17.8269 22.088 18.0405 22.6041C18.2542 23.1203 18.6161 23.5615 19.0805 23.872C19.5449 24.1824 20.0909 24.3482 20.6495 24.3484M17.8249 27.173C17.8249 27.7317 17.9906 28.2778 18.3009 28.7423C18.6113 29.2068 19.0524 29.5688 19.5686 29.7826C20.0847 29.9964 20.6526 30.0524 21.2006 29.9434C21.7485 29.8344 22.2518 29.5654 22.6468 29.1703C23.0418 28.7753 23.3109 28.272 23.4198 27.7241C23.5288 27.1762 23.4729 26.6082 23.2591 26.0921C23.0453 25.576 22.6833 25.1348 22.2188 24.8244C21.7543 24.5141 21.2082 24.3484 20.6495 24.3484M20.6495 17.5655V31.1313V17.5655Z" fill="#F8FBFC"/>
<path d="M23.475 21.5238C23.475 20.9652 23.3093 20.4191 22.999 19.9546C22.6887 19.4901 22.2476 19.1281 21.7315 18.9143C21.2154 18.7005 20.6475 18.6445 20.0996 18.7534C19.5517 18.8623 19.0484 19.1312 18.6534 19.5262C18.2583 19.9211 17.9892 20.4243 17.8801 20.9722C17.771 21.5201 17.8269 22.088 18.0405 22.6041C18.2542 23.1203 18.6161 23.5615 19.0805 23.872C19.5449 24.1824 20.0909 24.3482 20.6495 24.3484M17.8249 27.173C17.8249 27.7317 17.9906 28.2778 18.3009 28.7423C18.6113 29.2068 19.0524 29.5688 19.5686 29.7826C20.0847 29.9964 20.6526 30.0524 21.2006 29.9434C21.7485 29.8344 22.2518 29.5654 22.6468 29.1703C23.0418 28.7753 23.3109 28.272 23.4198 27.7241C23.5288 27.1762 23.4729 26.6082 23.2591 26.0921C23.0453 25.576 22.6833 25.1348 22.2188 24.8244C21.7543 24.5141 21.2082 24.3484 20.6495 24.3484M20.6495 17.5655V31.1313M1.73047 13.3779H39.5694V35.3189H1.73047V13.3779Z" stroke="black" stroke-width="2" stroke-miterlimit="10" stroke-linecap="round" stroke-linejoin="round"/>
<path d="M39.5717 31.6195H43.2686V9.68115H5.42969V13.3781" stroke="black" stroke-width="2" stroke-miterlimit="10" stroke-linecap="round" stroke-linejoin="round"/>
</svg>
