<svg width="26" height="24" viewBox="0 0 26 24" fill="none" xmlns="http://www.w3.org/2000/svg">
<path d="M13.2359 0C12.3023 0 11.3697 0.33711 10.6574 1.01142L8.29415 3.24699L13.2359 7.92547L18.1777 3.24699L15.8163 1.01142C15.1041 0.33711 14.1695 0 13.2359 0ZM6.9154 4.55228L1.62893 9.55707C0.204419 10.9057 0.204419 13.0925 1.62893 14.4411L3.99032 16.6767L11.8572 9.23075L6.9154 4.55228ZM19.5545 4.55408L14.6147 9.23075L18.5967 13.0024L23.5384 8.3239L19.5545 4.55408ZM24.9115 9.6382L19.9773 14.3077L22.4815 16.6785L24.8429 14.4429C26.2411 13.1192 26.259 10.9914 24.9115 9.6382ZM13.2359 10.536L5.36907 17.9837L10.6555 22.9885C12.08 24.3372 14.3899 24.3372 15.8144 22.9885L21.1009 17.9837L13.2359 10.536Z" fill="#5D5FEF"/>
</svg>
