<svg width="24" height="24" viewBox="0 0 24 24" fill="none" xmlns="http://www.w3.org/2000/svg">
<path d="M4.625 0.8125C3.61386 0.8125 2.64414 1.21417 1.92916 1.92916C1.21417 2.64414 0.8125 3.61386 0.8125 4.625V7.48438C0.8125 7.73716 0.912918 7.97959 1.09166 8.15834C1.27041 8.33708 1.51284 8.4375 1.76562 8.4375C2.01841 8.4375 2.26084 8.33708 2.43959 8.15834C2.61833 7.97959 2.71875 7.73716 2.71875 7.48438V4.625C2.71875 4.11943 2.91959 3.63457 3.27708 3.27708C3.63457 2.91959 4.11943 2.71875 4.625 2.71875H7.48438C7.73716 2.71875 7.97959 2.61833 8.15834 2.43959C8.33708 2.26084 8.4375 2.01841 8.4375 1.76562C8.4375 1.51284 8.33708 1.27041 8.15834 1.09166C7.97959 0.912918 7.73716 0.8125 7.48438 0.8125H4.625ZM4.625 23.6875C3.61386 23.6875 2.64414 23.2858 1.92916 22.5708C1.21417 21.8559 0.8125 20.8861 0.8125 19.875V17.0156C0.8125 16.7628 0.912918 16.5204 1.09166 16.3417C1.27041 16.1629 1.51284 16.0625 1.76562 16.0625C2.01841 16.0625 2.26084 16.1629 2.43959 16.3417C2.61833 16.5204 2.71875 16.7628 2.71875 17.0156V19.875C2.71875 20.3806 2.91959 20.8654 3.27708 21.2229C3.63457 21.5804 4.11943 21.7812 4.625 21.7812H7.48438C7.73716 21.7812 7.97959 21.8817 8.15834 22.0604C8.33708 22.2392 8.4375 22.4816 8.4375 22.7344C8.4375 22.9872 8.33708 23.2296 8.15834 23.4083C7.97959 23.5871 7.73716 23.6875 7.48438 23.6875H4.625ZM23.6875 4.625C23.6875 3.61386 23.2858 2.64414 22.5708 1.92916C21.8559 1.21417 20.8861 0.8125 19.875 0.8125H17.0156C16.7628 0.8125 16.5204 0.912918 16.3417 1.09166C16.1629 1.27041 16.0625 1.51284 16.0625 1.76562C16.0625 2.01841 16.1629 2.26084 16.3417 2.43959C16.5204 2.61833 16.7628 2.71875 17.0156 2.71875H19.875C20.3806 2.71875 20.8654 2.91959 21.2229 3.27708C21.5804 3.63457 21.7812 4.11943 21.7812 4.625V7.48438C21.7812 7.73716 21.8817 7.97959 22.0604 8.15834C22.2392 8.33708 22.4816 8.4375 22.7344 8.4375C22.9872 8.4375 23.2296 8.33708 23.4083 8.15834C23.5871 7.97959 23.6875 7.73716 23.6875 7.48438V4.625ZM19.875 23.6875C20.8861 23.6875 21.8559 23.2858 22.5708 22.5708C23.2858 21.8559 23.6875 20.8861 23.6875 19.875V17.0156C23.6875 16.7628 23.5871 16.5204 23.4083 16.3417C23.2296 16.1629 22.9872 16.0625 22.7344 16.0625C22.4816 16.0625 22.2392 16.1629 22.0604 16.3417C21.8817 16.5204 21.7812 16.7628 21.7812 17.0156V19.875C21.7812 20.3806 21.5804 20.8654 21.2229 21.2229C20.8654 21.5804 20.3806 21.7812 19.875 21.7812H17.0156C16.7628 21.7812 16.5204 21.8817 16.3417 22.0604C16.1629 22.2392 16.0625 22.4816 16.0625 22.7344C16.0625 22.9872 16.1629 23.2296 16.3417 23.4083C16.5204 23.5871 16.7628 23.6875 17.0156 23.6875H19.875ZM7.48438 14.1562C7.48438 12.8923 7.98647 11.6802 8.88019 10.7864C9.77392 9.89272 10.9861 9.39062 12.25 9.39062C13.5139 9.39062 14.7261 9.89272 15.6198 10.7864C16.5135 11.6802 17.0156 12.8923 17.0156 14.1562C17.0156 15.4202 16.5135 16.6323 15.6198 17.5261C14.7261 18.4198 13.5139 18.9219 12.25 18.9219C10.9861 18.9219 9.77392 18.4198 8.88019 17.5261C7.98647 16.6323 7.48438 15.4202 7.48438 14.1562ZM12.25 11.2969C11.4916 11.2969 10.7644 11.5981 10.2281 12.1344C9.69188 12.6706 9.39062 13.3979 9.39062 14.1562C9.39062 14.9146 9.69188 15.6419 10.2281 16.1781C10.7644 16.7144 11.4916 17.0156 12.25 17.0156C13.0084 17.0156 13.7356 16.7144 14.2719 16.1781C14.8081 15.6419 15.1094 14.9146 15.1094 14.1562C15.1094 13.3979 14.8081 12.6706 14.2719 12.1344C13.7356 11.5981 13.0084 11.2969 12.25 11.2969ZM3.31731 12.1814C3.5519 12.2754 3.81421 12.2723 4.04656 12.1729C4.27892 12.0736 4.46229 11.886 4.55638 11.6514V11.6533L4.56591 11.6324L4.61928 11.518C4.67075 11.4132 4.75653 11.2568 4.87853 11.0605C5.21932 10.528 5.62961 10.0434 6.09853 9.61938C7.248 8.57666 9.1695 7.48438 12.25 7.48438C15.3324 7.48438 17.252 8.57666 18.3996 9.61938C18.981 10.1474 19.3756 10.6735 19.6196 11.0624C19.7361 11.2457 19.8412 11.4361 19.9341 11.6324C19.9341 11.6324 20.3992 12.494 21.1827 12.1814C21.4172 12.0873 21.6048 11.9039 21.7042 11.6716C21.8036 11.4392 21.8066 11.1769 21.7126 10.9423C21.5087 10.5172 21.7126 10.9423 21.7126 10.9423V10.9385L21.7088 10.9309L21.6993 10.9118C21.6644 10.8284 21.6262 10.7463 21.5849 10.6659C21.4771 10.4524 21.3588 10.2443 21.2303 10.0426C20.7983 9.3651 20.2778 8.74837 19.6825 8.20875C18.207 6.86866 15.8376 5.57812 12.2481 5.57812C8.66053 5.57812 6.29106 6.86866 4.81753 8.20875C4.2215 8.7482 3.70028 9.36494 3.26775 10.0426C3.0916 10.3212 2.93491 10.6116 2.79881 10.9118L2.79119 10.9309L2.78737 10.9404V10.9423C2.6934 11.1769 2.69643 11.4392 2.7958 11.6716C2.89518 11.9039 3.08276 12.0873 3.31731 12.1814Z" fill="#5D5FEF"/>
</svg>
