<svg width="38" height="38" viewBox="0 0 38 38" fill="none" xmlns="http://www.w3.org/2000/svg">
<rect width="38" height="38" rx="19" fill="#FCB707" fill-opacity="0.1"/>
<rect x="5" y="5" width="28" height="28" rx="14" fill="white"/>
<path fill-rule="evenodd" clip-rule="evenodd" d="M17.6537 9.95559L16.2068 11.4012C16.0899 11.5181 15.9316 11.5839 15.7663 11.5843H13.4896C12.4371 11.5843 11.5843 12.4371 11.5843 13.4896V15.7663C11.584 15.9319 11.5182 16.0907 11.4012 16.208L9.95431 17.6537C9.59714 18.011 9.39648 18.4955 9.39648 19.0007C9.39648 19.5059 9.59714 19.9905 9.95431 20.3478L11.4012 21.7947C11.5181 21.9115 11.5839 22.0699 11.5843 22.2351V24.5118C11.5843 25.5643 12.4371 26.4171 13.4896 26.4171H15.7663C15.9319 26.4174 16.0907 26.4833 16.208 26.6002L17.6537 28.0471C18.011 28.4043 18.4955 28.6049 19.0007 28.6049C19.5059 28.6049 19.9905 28.4043 20.3478 28.0471L21.7947 26.6002C21.9115 26.4833 22.0699 26.4175 22.2351 26.4171H24.5118C25.5643 26.4171 26.4171 25.5643 26.4171 24.5118V22.2351C26.4174 22.0695 26.4833 21.9107 26.6002 21.7934L28.0471 20.3478C28.4043 19.9905 28.6049 19.5059 28.6049 19.0007C28.6049 18.4955 28.4043 18.011 28.0471 17.6537L26.6002 16.2068C26.4833 16.0899 26.4175 15.9316 26.4171 15.7663V13.4896C26.4171 12.4371 25.5643 11.5843 24.5118 11.5843H22.2351C22.0694 11.5843 21.9105 11.5184 21.7934 11.4012L20.3478 9.95431C19.9905 9.59714 19.5059 9.39648 19.0007 9.39648C18.4955 9.39648 18.011 9.59714 17.6537 9.95431V9.95559ZM15.3463 21.7486L21.7486 15.3463L22.6551 16.2529L16.2529 22.6551L15.3463 21.7486ZM15.7996 15.7996V17.08H17.08V15.7996H15.7996ZM20.9214 22.2019H22.2019V20.9214H20.9214V22.2019Z" fill="#F9A000"/>
</svg>
