<svg width="17" height="13" viewBox="0 0 17 13" fill="none" xmlns="http://www.w3.org/2000/svg">
<path fill-rule="evenodd" clip-rule="evenodd" d="M1.2001 0.666748H7.20063C7.86343 0.666748 8.40073 1.18908 8.40073 1.83341C8.40073 2.47775 7.86343 3.00008 7.20063 3.00008H1.2001C0.537305 3.00008 0 2.47775 0 1.83341C0 1.18908 0.537305 0.666748 1.2001 0.666748ZM9.60073 10H15.6013C16.2641 10 16.8014 10.5223 16.8014 11.1667C16.8014 11.811 16.2641 12.3333 15.6013 12.3333H9.60073C8.93793 12.3333 8.40063 11.811 8.40063 11.1667C8.40063 10.5223 8.93793 10 9.60073 10ZM15.6014 5.33341H1.2001C0.537305 5.33341 0 5.85575 0 6.50008C0 7.14441 0.537305 7.66675 1.2001 7.66675H15.6014C16.2642 7.66675 16.8015 7.14441 16.8015 6.50008C16.8015 5.85575 16.2642 5.33341 15.6014 5.33341Z" fill="black"/>
</svg>
