<svg width="24" height="25" viewBox="0 0 24 25" fill="none" xmlns="http://www.w3.org/2000/svg">
<path d="M7.84212 3.03917C6.59412 2.72237 5.28612 2.85677 4.26132 3.43037C3.21732 4.01357 2.48532 5.04797 2.44932 6.43157C2.39412 8.59397 2.89452 11.4956 4.88172 14.9012C6.84372 18.2648 9.00972 20.2808 10.8073 21.4784C11.9425 22.2356 13.1965 22.256 14.2681 21.7628C15.3241 21.2768 16.1809 20.306 16.6261 19.1024C16.7369 18.803 16.7814 18.4832 16.7566 18.165C16.7317 17.8467 16.6381 17.5377 16.4821 17.2592L15.3373 15.2168C14.9854 14.5882 14.419 14.1072 13.7417 13.8617C13.0644 13.6163 12.3214 13.6228 11.6485 13.88L10.8493 14.186C10.4617 14.3336 10.1053 14.2652 9.90372 14.066C9.22572 13.4 8.74092 12.4964 8.52132 11.522C8.45172 11.2148 8.59332 10.8524 8.93172 10.5968L9.65292 10.052C10.236 9.61201 10.6385 8.97445 10.7849 8.25887C10.9314 7.54328 10.8118 6.79885 10.4485 6.16517L9.28212 4.13117C9.12759 3.86189 8.92047 3.62644 8.67309 3.43884C8.4257 3.25124 8.14311 3.11532 7.84212 3.03917ZM3.64932 6.46397C3.67332 5.53517 4.14372 4.87157 4.84692 4.47797C5.56932 4.07357 6.55572 3.94997 7.54692 4.20197C7.69216 4.23866 7.82853 4.30421 7.9479 4.39471C8.06727 4.48522 8.16719 4.59883 8.24172 4.72877L9.40692 6.76277C9.62485 7.14282 9.69671 7.5893 9.609 8.01854C9.5213 8.44777 9.28007 8.83028 8.93052 9.09438L8.20932 9.63917C7.58532 10.1096 7.15332 10.916 7.35012 11.786C7.61652 12.9644 8.20572 14.0816 9.06252 14.9228C9.68892 15.5372 10.5817 15.5732 11.2777 15.3068L12.0769 15.0008C12.4807 14.8462 12.9266 14.8422 13.3332 14.9893C13.7397 15.1365 14.0797 15.4251 14.2909 15.8024L15.4345 17.846C15.5785 18.1028 15.6025 18.41 15.5005 18.686C15.1525 19.628 14.4985 20.3348 13.7665 20.672C13.0501 21.002 12.2401 20.9924 11.4733 20.48C9.82812 19.3832 7.78932 17.5028 5.91732 14.2964C4.04412 11.0804 3.60012 8.39957 3.65052 6.46397H3.64932ZM15.2917 2.97437C15.1526 2.89704 14.9885 2.87812 14.8355 2.92178C14.6825 2.96543 14.5531 3.0681 14.4757 3.20717C14.3984 3.34625 14.3795 3.51036 14.4231 3.66339C14.4668 3.81642 14.5694 3.94584 14.7085 4.02317L15.1693 4.27997C16.6089 5.07966 17.8334 6.21599 18.7382 7.59186C19.6431 8.96773 20.2013 10.5422 20.3653 12.1808L20.4037 12.5588C20.4082 12.6397 20.4291 12.7188 20.4651 12.7914C20.501 12.8641 20.5513 12.9287 20.6129 12.9813C20.6745 13.034 20.7461 13.0736 20.8235 13.0978C20.9008 13.122 20.9822 13.1303 21.0628 13.1222C21.1435 13.1141 21.2216 13.0897 21.2926 13.0506C21.3635 13.0115 21.4258 12.9584 21.4757 12.8945C21.5256 12.8306 21.562 12.7573 21.5827 12.679C21.6035 12.6007 21.6082 12.519 21.5965 12.4388L21.5593 12.062C21.3762 10.2303 20.7523 8.47017 19.7409 6.93212C18.7294 5.39406 17.3606 4.12382 15.7513 3.22997L15.2917 2.97437ZM13.8853 6.19037C13.9673 6.05402 14.1001 5.9558 14.2544 5.91732C14.4088 5.87884 14.5721 5.90325 14.7085 5.98517L14.8573 6.07397C15.826 6.65472 16.6569 7.43888 17.2928 8.37227C17.9287 9.30565 18.3542 10.366 18.5401 11.48L18.5929 11.8004C18.608 11.8789 18.6073 11.9597 18.5907 12.038C18.5741 12.1163 18.542 12.1904 18.4963 12.2561C18.4507 12.3218 18.3923 12.3777 18.3247 12.4205C18.2571 12.4633 18.1816 12.4922 18.1027 12.5054C18.0238 12.5186 17.9431 12.5159 17.8652 12.4974C17.7874 12.4789 17.714 12.4451 17.6494 12.3979C17.5849 12.3506 17.5304 12.2909 17.4892 12.2223C17.4481 12.1537 17.421 12.0776 17.4097 11.9984L17.3557 11.678C17.1987 10.7355 16.8389 9.83844 16.3013 9.04865C15.7636 8.25886 15.0609 7.59522 14.2417 7.10357L14.0929 7.01357C14.0253 6.97309 13.9663 6.91967 13.9194 6.85638C13.8724 6.7931 13.8384 6.72118 13.8192 6.64473C13.8 6.56829 13.7961 6.48881 13.8077 6.41086C13.8192 6.3329 13.846 6.25798 13.8865 6.19037H13.8853Z" fill="black"/>
</svg>
