<svg width="19" height="22" viewBox="0 0 19 22" fill="none" xmlns="http://www.w3.org/2000/svg">
<path d="M12.8762 18C12.8762 18.7957 12.5511 19.5587 11.9723 20.1213C11.3936 20.6839 10.6087 21 9.7902 21C8.97175 21 8.18682 20.6839 7.60808 20.1213C7.02935 19.5587 6.70422 18.7957 6.70422 18M10.5319 4.00302L9.02385 4.00002C5.58401 3.99202 2.5978 6.70902 2.57414 10V13.79C2.57414 14.58 2.47128 15.351 2.02792 16.008L1.7327 16.446C1.28317 17.11 1.76664 18 2.57414 18H17.0063C17.8138 18 18.2962 17.11 17.8477 16.446L17.5525 16.008C17.1102 15.351 17.0063 14.579 17.0063 13.789V10.001C16.9651 6.70902 13.9717 4.01102 10.5319 4.00302V4.00302Z" stroke="black" stroke-width="1.5" stroke-linecap="round" stroke-linejoin="round"/>
<path d="M9.78974 1C10.3354 1 10.8587 1.21071 11.2445 1.58579C11.6303 1.96086 11.8471 2.46957 11.8471 3V4H7.73242V3C7.73242 2.46957 7.94918 1.96086 8.335 1.58579C8.72082 1.21071 9.24411 1 9.78974 1Z" stroke="black" stroke-width="2" stroke-linecap="round" stroke-linejoin="round"/>
</svg>
