<svg width="327" height="320" viewBox="0 0 327 320" fill="none" xmlns="http://www.w3.org/2000/svg">
<rect x="24" y="24" width="131" height="32" rx="8" fill="white" fill-opacity="0.6"/>
<path d="M63.532 36.04V34.878H66.164V45H64.876V36.04H63.532ZM68.9684 45.084C68.7257 45.084 68.5204 45 68.3524 44.832C68.1844 44.664 68.1004 44.4587 68.1004 44.216C68.1004 43.9733 68.1844 43.768 68.3524 43.6C68.5204 43.432 68.7257 43.348 68.9684 43.348C69.2017 43.348 69.3977 43.432 69.5564 43.6C69.7244 43.768 69.8084 43.9733 69.8084 44.216C69.8084 44.4587 69.7244 44.664 69.5564 44.832C69.3977 45 69.2017 45.084 68.9684 45.084ZM78.3563 38.378H76.7463V45H75.4723V38.378H74.4783V37.328H75.4723V36.782C75.4723 35.9233 75.6916 35.298 76.1303 34.906C76.5783 34.5047 77.2923 34.304 78.2722 34.304V35.368C77.7123 35.368 77.3156 35.48 77.0823 35.704C76.8583 35.9187 76.7463 36.278 76.7463 36.782V37.328H78.3563V38.378ZM86.6457 37.328V45H85.3717V43.866C85.129 44.258 84.7883 44.566 84.3497 44.79C83.9203 45.0047 83.4443 45.112 82.9217 45.112C82.3243 45.112 81.7877 44.9907 81.3117 44.748C80.8357 44.496 80.4577 44.1227 80.1777 43.628C79.907 43.1333 79.7717 42.5313 79.7717 41.822V37.328H81.0317V41.654C81.0317 42.41 81.223 42.9933 81.6057 43.404C81.9883 43.8053 82.511 44.006 83.1737 44.006C83.855 44.006 84.3917 43.796 84.7837 43.376C85.1757 42.956 85.3717 42.3447 85.3717 41.542V37.328H86.6457ZM90.3508 38.378V42.9C90.3508 43.2733 90.4301 43.5393 90.5888 43.698C90.7474 43.8473 91.0228 43.922 91.4147 43.922H92.3528V45H91.2048C90.4954 45 89.9634 44.8367 89.6088 44.51C89.2541 44.1833 89.0768 43.6467 89.0768 42.9V38.378H88.0828V37.328H89.0768V35.396H90.3508V37.328H92.3528V38.378H90.3508ZM100.7 37.328V45H99.4264V43.866C99.1837 44.258 98.843 44.566 98.4044 44.79C97.975 45.0047 97.499 45.112 96.9764 45.112C96.379 45.112 95.8424 44.9907 95.3664 44.748C94.8904 44.496 94.5124 44.1227 94.2324 43.628C93.9617 43.1333 93.8264 42.5313 93.8264 41.822V37.328H95.0864V41.654C95.0864 42.41 95.2777 42.9933 95.6604 43.404C96.043 43.8053 96.5657 44.006 97.2284 44.006C97.9097 44.006 98.4464 43.796 98.8384 43.376C99.2304 42.956 99.4264 42.3447 99.4264 41.542V37.328H100.7ZM104.125 38.574C104.349 38.1353 104.667 37.7947 105.077 37.552C105.497 37.3093 106.006 37.188 106.603 37.188V38.504H106.267C104.839 38.504 104.125 39.2787 104.125 40.828V45H102.851V37.328H104.125V38.574ZM115.074 40.87C115.074 41.1127 115.06 41.3693 115.032 41.64H108.9C108.947 42.396 109.203 42.9887 109.67 43.418C110.146 43.838 110.72 44.048 111.392 44.048C111.943 44.048 112.4 43.922 112.764 43.67C113.137 43.4087 113.399 43.0633 113.548 42.634H114.92C114.715 43.3713 114.304 43.9733 113.688 44.44C113.072 44.8973 112.307 45.126 111.392 45.126C110.664 45.126 110.011 44.9627 109.432 44.636C108.863 44.3093 108.415 43.8473 108.088 43.25C107.761 42.6433 107.598 41.9433 107.598 41.15C107.598 40.3567 107.757 39.6613 108.074 39.064C108.391 38.4667 108.835 38.0093 109.404 37.692C109.983 37.3653 110.645 37.202 111.392 37.202C112.12 37.202 112.764 37.3607 113.324 37.678C113.884 37.9953 114.313 38.434 114.612 38.994C114.92 39.5447 115.074 40.17 115.074 40.87ZM113.758 40.604C113.758 40.1187 113.651 39.7033 113.436 39.358C113.221 39.0033 112.927 38.7373 112.554 38.56C112.19 38.3733 111.784 38.28 111.336 38.28C110.692 38.28 110.141 38.4853 109.684 38.896C109.236 39.3067 108.979 39.876 108.914 40.604H113.758Z" fill="#6A6A6A"/>
<rect x="24" y="72" width="131" height="32" rx="8" fill="white" fill-opacity="0.6"/>
<path d="M70.214 91.978C71.3993 91.026 72.328 90.2467 73 89.64C73.672 89.024 74.2367 88.3847 74.694 87.722C75.1607 87.05 75.394 86.392 75.394 85.748C75.394 85.1413 75.2447 84.6653 74.946 84.32C74.6567 83.9653 74.1853 83.788 73.532 83.788C72.8973 83.788 72.4027 83.9887 72.048 84.39C71.7027 84.782 71.516 85.3093 71.488 85.972H70.256C70.2933 84.9267 70.6107 84.1193 71.208 83.55C71.8053 82.9807 72.5753 82.696 73.518 82.696C74.4793 82.696 75.24 82.962 75.8 83.494C76.3693 84.026 76.654 84.7587 76.654 85.692C76.654 86.4667 76.4207 87.2227 75.954 87.96C75.4967 88.688 74.974 89.332 74.386 89.892C73.798 90.4427 73.0467 91.0867 72.132 91.824H76.948V92.888H70.214V91.978ZM79.0367 93.084C78.7941 93.084 78.5887 93 78.4207 92.832C78.2527 92.664 78.1687 92.4587 78.1687 92.216C78.1687 91.9733 78.2527 91.768 78.4207 91.6C78.5887 91.432 78.7941 91.348 79.0367 91.348C79.2701 91.348 79.4661 91.432 79.6247 91.6C79.7927 91.768 79.8767 91.9733 79.8767 92.216C79.8767 92.4587 79.7927 92.664 79.6247 92.832C79.4661 93 79.2701 93.084 79.0367 93.084ZM92.1066 85.328V93H90.8326V91.866C90.5899 92.258 90.2493 92.566 89.8106 92.79C89.3813 93.0047 88.9053 93.112 88.3826 93.112C87.7853 93.112 87.2486 92.9907 86.7726 92.748C86.2966 92.496 85.9186 92.1227 85.6386 91.628C85.3679 91.1333 85.2326 90.5313 85.2326 89.822V85.328H86.4926V89.654C86.4926 90.41 86.6839 90.9933 87.0666 91.404C87.4493 91.8053 87.9719 92.006 88.6346 92.006C89.3159 92.006 89.8526 91.796 90.2446 91.376C90.6366 90.956 90.8326 90.3447 90.8326 89.542V85.328H92.1066ZM96.9737 93.126C96.3857 93.126 95.8584 93.028 95.3917 92.832C94.925 92.6267 94.5564 92.3467 94.2857 91.992C94.015 91.628 93.8657 91.2127 93.8377 90.746H95.1537C95.191 91.1287 95.3684 91.4413 95.6857 91.684C96.0124 91.9267 96.437 92.048 96.9597 92.048C97.445 92.048 97.8277 91.9407 98.1077 91.726C98.3877 91.5113 98.5277 91.2407 98.5277 90.914C98.5277 90.578 98.3784 90.3307 98.0797 90.172C97.781 90.004 97.319 89.8407 96.6937 89.682C96.1244 89.5327 95.6577 89.3833 95.2937 89.234C94.939 89.0753 94.631 88.8467 94.3697 88.548C94.1177 88.24 93.9917 87.8387 93.9917 87.344C93.9917 86.952 94.1084 86.5927 94.3417 86.266C94.575 85.9393 94.9064 85.6827 95.3357 85.496C95.765 85.3 96.255 85.202 96.8057 85.202C97.655 85.202 98.341 85.4167 98.8637 85.846C99.3864 86.2753 99.6664 86.8633 99.7037 87.61H98.4297C98.4017 87.2087 98.2384 86.8867 97.9397 86.644C97.6504 86.4013 97.2584 86.28 96.7637 86.28C96.3064 86.28 95.9424 86.378 95.6717 86.574C95.401 86.77 95.2657 87.0267 95.2657 87.344C95.2657 87.596 95.345 87.806 95.5037 87.974C95.6717 88.1327 95.877 88.2633 96.1197 88.366C96.3717 88.4593 96.717 88.5667 97.1557 88.688C97.7064 88.8373 98.1544 88.9867 98.4997 89.136C98.845 89.276 99.139 89.4907 99.3817 89.78C99.6337 90.0693 99.7644 90.4473 99.7737 90.914C99.7737 91.334 99.657 91.712 99.4237 92.048C99.1904 92.384 98.859 92.65 98.4297 92.846C98.0097 93.0327 97.5244 93.126 96.9737 93.126ZM108.572 88.87C108.572 89.1127 108.558 89.3693 108.53 89.64H102.398C102.445 90.396 102.701 90.9887 103.168 91.418C103.644 91.838 104.218 92.048 104.89 92.048C105.441 92.048 105.898 91.922 106.262 91.67C106.635 91.4087 106.897 91.0633 107.046 90.634H108.418C108.213 91.3713 107.802 91.9733 107.186 92.44C106.57 92.8973 105.805 93.126 104.89 93.126C104.162 93.126 103.509 92.9627 102.93 92.636C102.361 92.3093 101.913 91.8473 101.586 91.25C101.259 90.6433 101.096 89.9433 101.096 89.15C101.096 88.3567 101.255 87.6613 101.572 87.064C101.889 86.4667 102.333 86.0093 102.902 85.692C103.481 85.3653 104.143 85.202 104.89 85.202C105.618 85.202 106.262 85.3607 106.822 85.678C107.382 85.9953 107.811 86.434 108.11 86.994C108.418 87.5447 108.572 88.17 108.572 88.87ZM107.256 88.604C107.256 88.1187 107.149 87.7033 106.934 87.358C106.719 87.0033 106.425 86.7373 106.052 86.56C105.688 86.3733 105.282 86.28 104.834 86.28C104.19 86.28 103.639 86.4853 103.182 86.896C102.734 87.3067 102.477 87.876 102.412 88.604H107.256Z" fill="#6A6A6A"/>
<rect x="24" y="120" width="131" height="32" rx="8" fill="white" fill-opacity="0.6"/>
<path d="M60.84 133.426C60.9053 132.567 61.2367 131.895 61.834 131.41C62.4313 130.925 63.206 130.682 64.158 130.682C64.7927 130.682 65.3387 130.799 65.796 131.032C66.2627 131.256 66.6127 131.564 66.846 131.956C67.0887 132.348 67.21 132.791 67.21 133.286C67.21 133.865 67.042 134.364 66.706 134.784C66.3793 135.204 65.95 135.475 65.418 135.596V135.666C66.0247 135.815 66.5053 136.109 66.86 136.548C67.2147 136.987 67.392 137.561 67.392 138.27C67.392 138.802 67.2707 139.283 67.028 139.712C66.7853 140.132 66.4213 140.463 65.936 140.706C65.4507 140.949 64.8673 141.07 64.186 141.07C63.1967 141.07 62.3847 140.813 61.75 140.3C61.1153 139.777 60.7607 139.04 60.686 138.088H61.918C61.9833 138.648 62.212 139.105 62.604 139.46C62.996 139.815 63.5187 139.992 64.172 139.992C64.8253 139.992 65.32 139.824 65.656 139.488C66.0013 139.143 66.174 138.699 66.174 138.158C66.174 137.458 65.9407 136.954 65.474 136.646C65.0073 136.338 64.3027 136.184 63.36 136.184H63.038V135.12H63.374C64.2327 135.111 64.8813 134.971 65.32 134.7C65.7587 134.42 65.978 133.991 65.978 133.412C65.978 132.917 65.8147 132.521 65.488 132.222C65.1707 131.923 64.7133 131.774 64.116 131.774C63.5373 131.774 63.0707 131.923 62.716 132.222C62.3613 132.521 62.1513 132.922 62.086 133.426H60.84ZM69.7281 141.084C69.4855 141.084 69.2801 141 69.1121 140.832C68.9441 140.664 68.8601 140.459 68.8601 140.216C68.8601 139.973 68.9441 139.768 69.1121 139.6C69.2801 139.432 69.4855 139.348 69.7281 139.348C69.9615 139.348 70.1575 139.432 70.3161 139.6C70.4841 139.768 70.5681 139.973 70.5681 140.216C70.5681 140.459 70.4841 140.664 70.3161 140.832C70.1575 141 69.9615 141.084 69.7281 141.084ZM75.518 137.136C75.518 136.352 75.6767 135.666 75.994 135.078C76.3113 134.481 76.7453 134.019 77.296 133.692C77.856 133.365 78.4767 133.202 79.158 133.202C79.83 133.202 80.4133 133.347 80.908 133.636C81.4027 133.925 81.7713 134.289 82.014 134.728V133.328H83.302V141H82.014V139.572C81.762 140.02 81.384 140.393 80.88 140.692C80.3853 140.981 79.8067 141.126 79.144 141.126C78.4627 141.126 77.8467 140.958 77.296 140.622C76.7453 140.286 76.3113 139.815 75.994 139.208C75.6767 138.601 75.518 137.911 75.518 137.136ZM82.014 137.15C82.014 136.571 81.8973 136.067 81.664 135.638C81.4307 135.209 81.1133 134.882 80.712 134.658C80.32 134.425 79.886 134.308 79.41 134.308C78.934 134.308 78.5 134.42 78.108 134.644C77.716 134.868 77.4033 135.195 77.17 135.624C76.9367 136.053 76.82 136.557 76.82 137.136C76.82 137.724 76.9367 138.237 77.17 138.676C77.4033 139.105 77.716 139.437 78.108 139.67C78.5 139.894 78.934 140.006 79.41 140.006C79.886 140.006 80.32 139.894 80.712 139.67C81.1133 139.437 81.4307 139.105 81.664 138.676C81.8973 138.237 82.014 137.729 82.014 137.15ZM86.729 134.756C86.9903 134.299 87.373 133.925 87.877 133.636C88.381 133.347 88.955 133.202 89.599 133.202C90.2896 133.202 90.9103 133.365 91.461 133.692C92.0116 134.019 92.4456 134.481 92.763 135.078C93.0803 135.666 93.239 136.352 93.239 137.136C93.239 137.911 93.0803 138.601 92.763 139.208C92.4456 139.815 92.007 140.286 91.447 140.622C90.8963 140.958 90.2803 141.126 89.599 141.126C88.9363 141.126 88.353 140.981 87.849 140.692C87.3543 140.403 86.981 140.034 86.729 139.586V141H85.455V130.64H86.729V134.756ZM91.937 137.136C91.937 136.557 91.8203 136.053 91.587 135.624C91.3536 135.195 91.0363 134.868 90.635 134.644C90.243 134.42 89.809 134.308 89.333 134.308C88.8663 134.308 88.4323 134.425 88.031 134.658C87.639 134.882 87.3216 135.213 87.079 135.652C86.8456 136.081 86.729 136.581 86.729 137.15C86.729 137.729 86.8456 138.237 87.079 138.676C87.3216 139.105 87.639 139.437 88.031 139.67C88.4323 139.894 88.8663 140.006 89.333 140.006C89.809 140.006 90.243 139.894 90.635 139.67C91.0363 139.437 91.3536 139.105 91.587 138.676C91.8203 138.237 91.937 137.724 91.937 137.136ZM101.72 133.328V141H100.446V139.866C100.203 140.258 99.8626 140.566 99.4239 140.79C98.9946 141.005 98.5186 141.112 97.9959 141.112C97.3986 141.112 96.8619 140.991 96.3859 140.748C95.9099 140.496 95.5319 140.123 95.2519 139.628C94.9812 139.133 94.8459 138.531 94.8459 137.822V133.328H96.1059V137.654C96.1059 138.41 96.2972 138.993 96.6799 139.404C97.0626 139.805 97.5852 140.006 98.2479 140.006C98.9292 140.006 99.4659 139.796 99.8579 139.376C100.25 138.956 100.446 138.345 100.446 137.542V133.328H101.72ZM106.587 141.126C105.999 141.126 105.472 141.028 105.005 140.832C104.538 140.627 104.17 140.347 103.899 139.992C103.628 139.628 103.479 139.213 103.451 138.746H104.767C104.804 139.129 104.982 139.441 105.299 139.684C105.626 139.927 106.05 140.048 106.573 140.048C107.058 140.048 107.441 139.941 107.721 139.726C108.001 139.511 108.141 139.241 108.141 138.914C108.141 138.578 107.992 138.331 107.693 138.172C107.394 138.004 106.932 137.841 106.307 137.682C105.738 137.533 105.271 137.383 104.907 137.234C104.552 137.075 104.244 136.847 103.983 136.548C103.731 136.24 103.605 135.839 103.605 135.344C103.605 134.952 103.722 134.593 103.955 134.266C104.188 133.939 104.52 133.683 104.949 133.496C105.378 133.3 105.868 133.202 106.419 133.202C107.268 133.202 107.954 133.417 108.477 133.846C109 134.275 109.28 134.863 109.317 135.61H108.043C108.015 135.209 107.852 134.887 107.553 134.644C107.264 134.401 106.872 134.28 106.377 134.28C105.92 134.28 105.556 134.378 105.285 134.574C105.014 134.77 104.879 135.027 104.879 135.344C104.879 135.596 104.958 135.806 105.117 135.974C105.285 136.133 105.49 136.263 105.733 136.366C105.985 136.459 106.33 136.567 106.769 136.688C107.32 136.837 107.768 136.987 108.113 137.136C108.458 137.276 108.752 137.491 108.995 137.78C109.247 138.069 109.378 138.447 109.387 138.914C109.387 139.334 109.27 139.712 109.037 140.048C108.804 140.384 108.472 140.65 108.043 140.846C107.623 141.033 107.138 141.126 106.587 141.126ZM118.185 136.87C118.185 137.113 118.171 137.369 118.143 137.64H112.011C112.058 138.396 112.315 138.989 112.781 139.418C113.257 139.838 113.831 140.048 114.503 140.048C115.054 140.048 115.511 139.922 115.875 139.67C116.249 139.409 116.51 139.063 116.659 138.634H118.031C117.826 139.371 117.415 139.973 116.799 140.44C116.183 140.897 115.418 141.126 114.503 141.126C113.775 141.126 113.122 140.963 112.543 140.636C111.974 140.309 111.526 139.847 111.199 139.25C110.873 138.643 110.709 137.943 110.709 137.15C110.709 136.357 110.868 135.661 111.185 135.064C111.503 134.467 111.946 134.009 112.515 133.692C113.094 133.365 113.757 133.202 114.503 133.202C115.231 133.202 115.875 133.361 116.435 133.678C116.995 133.995 117.425 134.434 117.723 134.994C118.031 135.545 118.185 136.17 118.185 136.87ZM116.869 136.604C116.869 136.119 116.762 135.703 116.547 135.358C116.333 135.003 116.039 134.737 115.665 134.56C115.301 134.373 114.895 134.28 114.447 134.28C113.803 134.28 113.253 134.485 112.795 134.896C112.347 135.307 112.091 135.876 112.025 136.604H116.869Z" fill="#6A6A6A"/>
<rect x="24" y="216" width="131" height="32" rx="8" fill="white" fill-opacity="0.6"/>
<path d="M57.822 227.984H52.908V231.176C53.1227 230.877 53.44 230.635 53.86 230.448C54.28 230.252 54.7327 230.154 55.218 230.154C55.9927 230.154 56.6227 230.317 57.108 230.644C57.5933 230.961 57.9387 231.377 58.144 231.89C58.3587 232.394 58.466 232.931 58.466 233.5C58.466 234.172 58.34 234.774 58.088 235.306C57.836 235.838 57.4487 236.258 56.926 236.566C56.4127 236.874 55.7733 237.028 55.008 237.028C54.028 237.028 53.2347 236.776 52.628 236.272C52.0213 235.768 51.6527 235.096 51.522 234.256H52.768C52.8893 234.788 53.146 235.203 53.538 235.502C53.93 235.801 54.4247 235.95 55.022 235.95C55.7593 235.95 56.3147 235.731 56.688 235.292C57.0613 234.844 57.248 234.256 57.248 233.528C57.248 232.8 57.0613 232.24 56.688 231.848C56.3147 231.447 55.764 231.246 55.036 231.246C54.5413 231.246 54.1073 231.367 53.734 231.61C53.37 231.843 53.104 232.165 52.936 232.576H51.732V226.864H57.822V227.984ZM60.775 237.084C60.5323 237.084 60.327 237 60.159 236.832C59.991 236.664 59.907 236.459 59.907 236.216C59.907 235.973 59.991 235.768 60.159 235.6C60.327 235.432 60.5323 235.348 60.775 235.348C61.0083 235.348 61.2043 235.432 61.363 235.6C61.531 235.768 61.615 235.973 61.615 236.216C61.615 236.459 61.531 236.664 61.363 236.832C61.2043 237 61.0083 237.084 60.775 237.084ZM66.5649 233.136C66.5649 232.352 66.7236 231.666 67.0409 231.078C67.3582 230.481 67.7922 230.019 68.3429 229.692C68.9029 229.365 69.5282 229.202 70.2189 229.202C70.8162 229.202 71.3716 229.342 71.8849 229.622C72.3982 229.893 72.7902 230.252 73.0609 230.7V226.64H74.3489V237H73.0609V235.558C72.8089 236.015 72.4356 236.393 71.9409 236.692C71.4462 236.981 70.8676 237.126 70.2049 237.126C69.5236 237.126 68.9029 236.958 68.3429 236.622C67.7922 236.286 67.3582 235.815 67.0409 235.208C66.7236 234.601 66.5649 233.911 66.5649 233.136ZM73.0609 233.15C73.0609 232.571 72.9442 232.067 72.7109 231.638C72.4776 231.209 72.1602 230.882 71.7589 230.658C71.3669 230.425 70.9329 230.308 70.4569 230.308C69.9809 230.308 69.5469 230.42 69.1549 230.644C68.7629 230.868 68.4502 231.195 68.2169 231.624C67.9836 232.053 67.8669 232.557 67.8669 233.136C67.8669 233.724 67.9836 234.237 68.2169 234.676C68.4502 235.105 68.7629 235.437 69.1549 235.67C69.5469 235.894 69.9809 236.006 70.4569 236.006C70.9329 236.006 71.3669 235.894 71.7589 235.67C72.1602 235.437 72.4776 235.105 72.7109 234.676C72.9442 234.237 73.0609 233.729 73.0609 233.15ZM77.1598 228.082C76.9172 228.082 76.7118 227.998 76.5438 227.83C76.3758 227.662 76.2918 227.457 76.2918 227.214C76.2918 226.971 76.3758 226.766 76.5438 226.598C76.7118 226.43 76.9172 226.346 77.1598 226.346C77.3932 226.346 77.5892 226.43 77.7478 226.598C77.9158 226.766 77.9998 226.971 77.9998 227.214C77.9998 227.457 77.9158 227.662 77.7478 227.83C77.5892 227.998 77.3932 228.082 77.1598 228.082ZM77.7758 229.328V237H76.5018V229.328H77.7758ZM82.6631 237.126C82.0751 237.126 81.5478 237.028 81.0811 236.832C80.6145 236.627 80.2458 236.347 79.9751 235.992C79.7045 235.628 79.5551 235.213 79.5271 234.746H80.8431C80.8805 235.129 81.0578 235.441 81.3751 235.684C81.7018 235.927 82.1265 236.048 82.6491 236.048C83.1345 236.048 83.5171 235.941 83.7971 235.726C84.0771 235.511 84.2171 235.241 84.2171 234.914C84.2171 234.578 84.0678 234.331 83.7691 234.172C83.4705 234.004 83.0085 233.841 82.3831 233.682C81.8138 233.533 81.3471 233.383 80.9831 233.234C80.6285 233.075 80.3205 232.847 80.0591 232.548C79.8071 232.24 79.6811 231.839 79.6811 231.344C79.6811 230.952 79.7978 230.593 80.0311 230.266C80.2645 229.939 80.5958 229.683 81.0251 229.496C81.4545 229.3 81.9445 229.202 82.4951 229.202C83.3445 229.202 84.0305 229.417 84.5531 229.846C85.0758 230.275 85.3558 230.863 85.3931 231.61H84.1191C84.0911 231.209 83.9278 230.887 83.6291 230.644C83.3398 230.401 82.9478 230.28 82.4531 230.28C81.9958 230.28 81.6318 230.378 81.3611 230.574C81.0905 230.77 80.9551 231.027 80.9551 231.344C80.9551 231.596 81.0345 231.806 81.1931 231.974C81.3611 232.133 81.5665 232.263 81.8091 232.366C82.0611 232.459 82.4065 232.567 82.8451 232.688C83.3958 232.837 83.8438 232.987 84.1891 233.136C84.5345 233.276 84.8285 233.491 85.0711 233.78C85.3231 234.069 85.4538 234.447 85.4631 234.914C85.4631 235.334 85.3465 235.712 85.1131 236.048C84.8798 236.384 84.5485 236.65 84.1191 236.846C83.6991 237.033 83.2138 237.126 82.6631 237.126ZM86.7856 233.136C86.7856 232.352 86.9443 231.666 87.2616 231.078C87.5789 230.481 88.0129 230.019 88.5636 229.692C89.1236 229.365 89.7443 229.202 90.4256 229.202C91.0976 229.202 91.6809 229.347 92.1756 229.636C92.6703 229.925 93.0389 230.289 93.2816 230.728V229.328H94.5696V237H93.2816V235.572C93.0296 236.02 92.6516 236.393 92.1476 236.692C91.6529 236.981 91.0743 237.126 90.4116 237.126C89.7303 237.126 89.1143 236.958 88.5636 236.622C88.0129 236.286 87.5789 235.815 87.2616 235.208C86.9443 234.601 86.7856 233.911 86.7856 233.136ZM93.2816 233.15C93.2816 232.571 93.1649 232.067 92.9316 231.638C92.6983 231.209 92.3809 230.882 91.9796 230.658C91.5876 230.425 91.1536 230.308 90.6776 230.308C90.2016 230.308 89.7676 230.42 89.3756 230.644C88.9836 230.868 88.6709 231.195 88.4376 231.624C88.2043 232.053 88.0876 232.557 88.0876 233.136C88.0876 233.724 88.2043 234.237 88.4376 234.676C88.6709 235.105 88.9836 235.437 89.3756 235.67C89.7676 235.894 90.2016 236.006 90.6776 236.006C91.1536 236.006 91.5876 235.894 91.9796 235.67C92.3809 235.437 92.6983 235.105 92.9316 234.676C93.1649 234.237 93.2816 233.729 93.2816 233.15ZM99.8865 229.202C100.549 229.202 101.128 229.347 101.623 229.636C102.127 229.925 102.5 230.289 102.743 230.728V229.328H104.031V237.168C104.031 237.868 103.881 238.489 103.583 239.03C103.284 239.581 102.855 240.01 102.295 240.318C101.744 240.626 101.1 240.78 100.363 240.78C99.3545 240.78 98.5145 240.542 97.8425 240.066C97.1705 239.59 96.7739 238.941 96.6525 238.12H97.9125C98.0525 238.587 98.3419 238.96 98.7805 239.24C99.2192 239.529 99.7465 239.674 100.363 239.674C101.063 239.674 101.632 239.455 102.071 239.016C102.519 238.577 102.743 237.961 102.743 237.168V235.558C102.491 236.006 102.117 236.379 101.623 236.678C101.128 236.977 100.549 237.126 99.8865 237.126C99.2052 237.126 98.5845 236.958 98.0245 236.622C97.4739 236.286 97.0399 235.815 96.7225 235.208C96.4052 234.601 96.2465 233.911 96.2465 233.136C96.2465 232.352 96.4052 231.666 96.7225 231.078C97.0399 230.481 97.4739 230.019 98.0245 229.692C98.5845 229.365 99.2052 229.202 99.8865 229.202ZM102.743 233.15C102.743 232.571 102.626 232.067 102.393 231.638C102.159 231.209 101.842 230.882 101.441 230.658C101.049 230.425 100.615 230.308 100.139 230.308C99.6625 230.308 99.2285 230.42 98.8365 230.644C98.4445 230.868 98.1319 231.195 97.8985 231.624C97.6652 232.053 97.5485 232.557 97.5485 233.136C97.5485 233.724 97.6652 234.237 97.8985 234.676C98.1319 235.105 98.4445 235.437 98.8365 235.67C99.2285 235.894 99.6625 236.006 100.139 236.006C100.615 236.006 101.049 235.894 101.441 235.67C101.842 235.437 102.159 235.105 102.393 234.676C102.626 234.237 102.743 233.729 102.743 233.15ZM107.457 230.574C107.681 230.135 107.999 229.795 108.409 229.552C108.829 229.309 109.338 229.188 109.935 229.188V230.504H109.599C108.171 230.504 107.457 231.279 107.457 232.828V237H106.183V229.328H107.457V230.574ZM118.406 232.87C118.406 233.113 118.392 233.369 118.364 233.64H112.232C112.279 234.396 112.535 234.989 113.002 235.418C113.478 235.838 114.052 236.048 114.724 236.048C115.275 236.048 115.732 235.922 116.096 235.67C116.469 235.409 116.731 235.063 116.88 234.634H118.252C118.047 235.371 117.636 235.973 117.02 236.44C116.404 236.897 115.639 237.126 114.724 237.126C113.996 237.126 113.343 236.963 112.764 236.636C112.195 236.309 111.747 235.847 111.42 235.25C111.093 234.643 110.93 233.943 110.93 233.15C110.93 232.357 111.089 231.661 111.406 231.064C111.723 230.467 112.167 230.009 112.736 229.692C113.315 229.365 113.977 229.202 114.724 229.202C115.452 229.202 116.096 229.361 116.656 229.678C117.216 229.995 117.645 230.434 117.944 230.994C118.252 231.545 118.406 232.17 118.406 232.87ZM117.09 232.604C117.09 232.119 116.983 231.703 116.768 231.358C116.553 231.003 116.259 230.737 115.886 230.56C115.522 230.373 115.116 230.28 114.668 230.28C114.024 230.28 113.473 230.485 113.016 230.896C112.568 231.307 112.311 231.876 112.246 232.604H117.09ZM127.088 232.87C127.088 233.113 127.074 233.369 127.046 233.64H120.914C120.96 234.396 121.217 234.989 121.684 235.418C122.16 235.838 122.734 236.048 123.406 236.048C123.956 236.048 124.414 235.922 124.778 235.67C125.151 235.409 125.412 235.063 125.562 234.634H126.934C126.728 235.371 126.318 235.973 125.702 236.44C125.086 236.897 124.32 237.126 123.406 237.126C122.678 237.126 122.024 236.963 121.446 236.636C120.876 236.309 120.428 235.847 120.102 235.25C119.775 234.643 119.612 233.943 119.612 233.15C119.612 232.357 119.77 231.661 120.088 231.064C120.405 230.467 120.848 230.009 121.418 229.692C121.996 229.365 122.659 229.202 123.406 229.202C124.134 229.202 124.778 229.361 125.338 229.678C125.898 229.995 126.327 230.434 126.626 230.994C126.934 231.545 127.088 232.17 127.088 232.87ZM125.772 232.604C125.772 232.119 125.664 231.703 125.45 231.358C125.235 231.003 124.941 230.737 124.568 230.56C124.204 230.373 123.798 230.28 123.35 230.28C122.706 230.28 122.155 230.485 121.698 230.896C121.25 231.307 120.993 231.876 120.928 232.604H125.772Z" fill="#6A6A6A"/>
<rect x="24" y="168" width="131" height="32" rx="8" fill="white" fill-opacity="0.6"/>
<path d="M57.56 186.746V185.78L62.474 178.976H64V185.64H65.4V186.746H64V189H62.74V186.746H57.56ZM62.796 180.306L59.03 185.64H62.796V180.306ZM67.2887 189.084C67.046 189.084 66.8407 189 66.6727 188.832C66.5047 188.664 66.4207 188.459 66.4207 188.216C66.4207 187.973 66.5047 187.768 66.6727 187.6C66.8407 187.432 67.046 187.348 67.2887 187.348C67.522 187.348 67.718 187.432 67.8767 187.6C68.0447 187.768 68.1287 187.973 68.1287 188.216C68.1287 188.459 68.0447 188.664 67.8767 188.832C67.718 189 67.522 189.084 67.2887 189.084ZM74.8286 182.756C75.0899 182.299 75.4726 181.925 75.9766 181.636C76.4806 181.347 77.0546 181.202 77.6986 181.202C78.3892 181.202 79.0099 181.365 79.5606 181.692C80.1112 182.019 80.5452 182.481 80.8626 183.078C81.1799 183.666 81.3386 184.352 81.3386 185.136C81.3386 185.911 81.1799 186.601 80.8626 187.208C80.5452 187.815 80.1066 188.286 79.5466 188.622C78.9959 188.958 78.3799 189.126 77.6986 189.126C77.0359 189.126 76.4526 188.981 75.9486 188.692C75.4539 188.403 75.0806 188.034 74.8286 187.586V189H73.5546V178.64H74.8286V182.756ZM80.0366 185.136C80.0366 184.557 79.9199 184.053 79.6866 183.624C79.4532 183.195 79.1359 182.868 78.7346 182.644C78.3426 182.42 77.9086 182.308 77.4326 182.308C76.9659 182.308 76.5319 182.425 76.1306 182.658C75.7386 182.882 75.4212 183.213 75.1786 183.652C74.9452 184.081 74.8286 184.581 74.8286 185.15C74.8286 185.729 74.9452 186.237 75.1786 186.676C75.4212 187.105 75.7386 187.437 76.1306 187.67C76.5319 187.894 76.9659 188.006 77.4326 188.006C77.9086 188.006 78.3426 187.894 78.7346 187.67C79.1359 187.437 79.4532 187.105 79.6866 186.676C79.9199 186.237 80.0366 185.724 80.0366 185.136ZM89.8195 181.328V189H88.5455V187.866C88.3028 188.258 87.9622 188.566 87.5235 188.79C87.0942 189.005 86.6182 189.112 86.0955 189.112C85.4982 189.112 84.9615 188.991 84.4855 188.748C84.0095 188.496 83.6315 188.123 83.3515 187.628C83.0808 187.133 82.9455 186.531 82.9455 185.822V181.328H84.2055V185.654C84.2055 186.41 84.3968 186.993 84.7795 187.404C85.1622 187.805 85.6848 188.006 86.3475 188.006C87.0288 188.006 87.5655 187.796 87.9575 187.376C88.3495 186.956 88.5455 186.345 88.5455 185.542V181.328H89.8195ZM93.2446 182.756C93.5059 182.299 93.8886 181.925 94.3926 181.636C94.8966 181.347 95.4706 181.202 96.1146 181.202C96.8052 181.202 97.4259 181.365 97.9766 181.692C98.5272 182.019 98.9612 182.481 99.2786 183.078C99.5959 183.666 99.7546 184.352 99.7546 185.136C99.7546 185.911 99.5959 186.601 99.2786 187.208C98.9612 187.815 98.5226 188.286 97.9626 188.622C97.4119 188.958 96.7959 189.126 96.1146 189.126C95.4519 189.126 94.8686 188.981 94.3646 188.692C93.8699 188.403 93.4966 188.034 93.2446 187.586V189H91.9706V178.64H93.2446V182.756ZM98.4526 185.136C98.4526 184.557 98.3359 184.053 98.1026 183.624C97.8692 183.195 97.5519 182.868 97.1506 182.644C96.7586 182.42 96.3246 182.308 95.8486 182.308C95.3819 182.308 94.9479 182.425 94.5466 182.658C94.1546 182.882 93.8372 183.213 93.5946 183.652C93.3612 184.081 93.2446 184.581 93.2446 185.15C93.2446 185.729 93.3612 186.237 93.5946 186.676C93.8372 187.105 94.1546 187.437 94.5466 187.67C94.9479 187.894 95.3819 188.006 95.8486 188.006C96.3246 188.006 96.7586 187.894 97.1506 187.67C97.5519 187.437 97.8692 187.105 98.1026 186.676C98.3359 186.237 98.4526 185.724 98.4526 185.136ZM102.706 182.756C102.967 182.299 103.35 181.925 103.854 181.636C104.358 181.347 104.932 181.202 105.576 181.202C106.266 181.202 106.887 181.365 107.438 181.692C107.988 182.019 108.422 182.481 108.74 183.078C109.057 183.666 109.216 184.352 109.216 185.136C109.216 185.911 109.057 186.601 108.74 187.208C108.422 187.815 107.984 188.286 107.424 188.622C106.873 188.958 106.257 189.126 105.576 189.126C104.913 189.126 104.33 188.981 103.826 188.692C103.331 188.403 102.958 188.034 102.706 187.586V189H101.432V178.64H102.706V182.756ZM107.914 185.136C107.914 184.557 107.797 184.053 107.564 183.624C107.33 183.195 107.013 182.868 106.612 182.644C106.22 182.42 105.786 182.308 105.31 182.308C104.843 182.308 104.409 182.425 104.008 182.658C103.616 182.882 103.298 183.213 103.056 183.652C102.822 184.081 102.706 184.581 102.706 185.15C102.706 185.729 102.822 186.237 103.056 186.676C103.298 187.105 103.616 187.437 104.008 187.67C104.409 187.894 104.843 188.006 105.31 188.006C105.786 188.006 106.22 187.894 106.612 187.67C107.013 187.437 107.33 187.105 107.564 186.676C107.797 186.237 107.914 185.724 107.914 185.136ZM112.166 178.64V189H110.892V178.64H112.166ZM121.338 184.87C121.338 185.113 121.324 185.369 121.296 185.64H115.164C115.21 186.396 115.467 186.989 115.934 187.418C116.41 187.838 116.984 188.048 117.656 188.048C118.206 188.048 118.664 187.922 119.028 187.67C119.401 187.409 119.662 187.063 119.812 186.634H121.184C120.978 187.371 120.568 187.973 119.952 188.44C119.336 188.897 118.57 189.126 117.656 189.126C116.928 189.126 116.274 188.963 115.696 188.636C115.126 188.309 114.678 187.847 114.352 187.25C114.025 186.643 113.862 185.943 113.862 185.15C113.862 184.357 114.02 183.661 114.338 183.064C114.655 182.467 115.098 182.009 115.668 181.692C116.246 181.365 116.909 181.202 117.656 181.202C118.384 181.202 119.028 181.361 119.588 181.678C120.148 181.995 120.577 182.434 120.876 182.994C121.184 183.545 121.338 184.17 121.338 184.87ZM120.022 184.604C120.022 184.119 119.914 183.703 119.7 183.358C119.485 183.003 119.191 182.737 118.818 182.56C118.454 182.373 118.048 182.28 117.6 182.28C116.956 182.28 116.405 182.485 115.948 182.896C115.5 183.307 115.243 183.876 115.178 184.604H120.022Z" fill="#6A6A6A"/>
<rect x="24" y="264" width="131" height="32" rx="8" fill="white" fill-opacity="0.6"/>
<path d="M72.01 277.286C71.8047 276.25 71.1653 275.732 70.092 275.732C69.2613 275.732 68.6407 276.054 68.23 276.698C67.8193 277.333 67.6187 278.383 67.628 279.848C67.8427 279.363 68.1973 278.985 68.692 278.714C69.196 278.434 69.756 278.294 70.372 278.294C71.3333 278.294 72.0987 278.593 72.668 279.19C73.2467 279.787 73.536 280.613 73.536 281.668C73.536 282.303 73.41 282.872 73.158 283.376C72.9153 283.88 72.542 284.281 72.038 284.58C71.5433 284.879 70.9413 285.028 70.232 285.028C69.2707 285.028 68.5193 284.813 67.978 284.384C67.4367 283.955 67.0587 283.362 66.844 282.606C66.6293 281.85 66.522 280.917 66.522 279.806C66.522 276.381 67.7167 274.668 70.106 274.668C71.0207 274.668 71.7393 274.915 72.262 275.41C72.7847 275.905 73.0927 276.53 73.186 277.286H72.01ZM70.106 279.372C69.7047 279.372 69.3267 279.456 68.972 279.624C68.6173 279.783 68.328 280.03 68.104 280.366C67.8893 280.693 67.782 281.094 67.782 281.57C67.782 282.279 67.9873 282.858 68.398 283.306C68.8087 283.745 69.3967 283.964 70.162 283.964C70.8153 283.964 71.3333 283.763 71.716 283.362C72.108 282.951 72.304 282.401 72.304 281.71C72.304 280.982 72.1173 280.413 71.744 280.002C71.3707 279.582 70.8247 279.372 70.106 279.372ZM75.8707 285.084C75.6281 285.084 75.4227 285 75.2547 284.832C75.0867 284.664 75.0027 284.459 75.0027 284.216C75.0027 283.973 75.0867 283.768 75.2547 283.6C75.4227 283.432 75.6281 283.348 75.8707 283.348C76.1041 283.348 76.3001 283.432 76.4587 283.6C76.6267 283.768 76.7107 283.973 76.7107 284.216C76.7107 284.459 76.6267 284.664 76.4587 284.832C76.3001 285 76.1041 285.084 75.8707 285.084ZM88.7446 277.328L84.1246 288.612H82.8086L84.3206 284.916L81.2266 277.328H82.6406L85.0486 283.544L87.4286 277.328H88.7446ZM89.5493 281.136C89.5493 280.352 89.7079 279.666 90.0253 279.078C90.3426 278.481 90.7766 278.019 91.3273 277.692C91.8873 277.365 92.5079 277.202 93.1893 277.202C93.8613 277.202 94.4446 277.347 94.9393 277.636C95.4339 277.925 95.8026 278.289 96.0453 278.728V277.328H97.3333V285H96.0453V283.572C95.7933 284.02 95.4153 284.393 94.9113 284.692C94.4166 284.981 93.8379 285.126 93.1753 285.126C92.4939 285.126 91.8779 284.958 91.3273 284.622C90.7766 284.286 90.3426 283.815 90.0253 283.208C89.7079 282.601 89.5493 281.911 89.5493 281.136ZM96.0453 281.15C96.0453 280.571 95.9286 280.067 95.6953 279.638C95.4619 279.209 95.1446 278.882 94.7433 278.658C94.3513 278.425 93.9173 278.308 93.4413 278.308C92.9653 278.308 92.5313 278.42 92.1393 278.644C91.7473 278.868 91.4346 279.195 91.2013 279.624C90.9679 280.053 90.8513 280.557 90.8513 281.136C90.8513 281.724 90.9679 282.237 91.2013 282.676C91.4346 283.105 91.7473 283.437 92.1393 283.67C92.5313 283.894 92.9653 284.006 93.4413 284.006C93.9173 284.006 94.3513 283.894 94.7433 283.67C95.1446 283.437 95.4619 283.105 95.6953 282.676C95.9286 282.237 96.0453 281.729 96.0453 281.15ZM100.76 278.574C100.984 278.135 101.302 277.795 101.712 277.552C102.132 277.309 102.641 277.188 103.238 277.188V278.504H102.902C101.474 278.504 100.76 279.279 100.76 280.828V285H99.4862V277.328H100.76V278.574ZM104.233 281.136C104.233 280.352 104.392 279.666 104.709 279.078C105.026 278.481 105.46 278.019 106.011 277.692C106.571 277.365 107.196 277.202 107.887 277.202C108.484 277.202 109.04 277.342 109.553 277.622C110.066 277.893 110.458 278.252 110.729 278.7V274.64H112.017V285H110.729V283.558C110.477 284.015 110.104 284.393 109.609 284.692C109.114 284.981 108.536 285.126 107.873 285.126C107.192 285.126 106.571 284.958 106.011 284.622C105.46 284.286 105.026 283.815 104.709 283.208C104.392 282.601 104.233 281.911 104.233 281.136ZM110.729 281.15C110.729 280.571 110.612 280.067 110.379 279.638C110.146 279.209 109.828 278.882 109.427 278.658C109.035 278.425 108.601 278.308 108.125 278.308C107.649 278.308 107.215 278.42 106.823 278.644C106.431 278.868 106.118 279.195 105.885 279.624C105.652 280.053 105.535 280.557 105.535 281.136C105.535 281.724 105.652 282.237 105.885 282.676C106.118 283.105 106.431 283.437 106.823 283.67C107.215 283.894 107.649 284.006 108.125 284.006C108.601 284.006 109.035 283.894 109.427 283.67C109.828 283.437 110.146 283.105 110.379 282.676C110.612 282.237 110.729 281.729 110.729 281.15Z" fill="#6A6A6A"/>
<rect x="171" y="24" width="132" height="32" rx="8" fill="white" fill-opacity="0.6"/>
<path d="M224.598 35.872L220.706 45H219.418L223.366 35.998H217.962V34.906H224.598V35.872ZM226.627 45.084C226.384 45.084 226.179 45 226.011 44.832C225.843 44.664 225.759 44.4587 225.759 44.216C225.759 43.9733 225.843 43.768 226.011 43.6C226.179 43.432 226.384 43.348 226.627 43.348C226.86 43.348 227.056 43.432 227.215 43.6C227.383 43.768 227.467 43.9733 227.467 44.216C227.467 44.4587 227.383 44.664 227.215 44.832C227.056 45 226.86 45.084 226.627 45.084ZM239.892 40.87C239.892 41.1127 239.878 41.3693 239.85 41.64H233.718C233.765 42.396 234.022 42.9887 234.488 43.418C234.964 43.838 235.538 44.048 236.21 44.048C236.761 44.048 237.218 43.922 237.582 43.67C237.956 43.4087 238.217 43.0633 238.366 42.634H239.738C239.533 43.3713 239.122 43.9733 238.506 44.44C237.89 44.8973 237.125 45.126 236.21 45.126C235.482 45.126 234.829 44.9627 234.25 44.636C233.681 44.3093 233.233 43.8473 232.906 43.25C232.58 42.6433 232.416 41.9433 232.416 41.15C232.416 40.3567 232.575 39.6613 232.892 39.064C233.21 38.4667 233.653 38.0093 234.222 37.692C234.801 37.3653 235.464 37.202 236.21 37.202C236.938 37.202 237.582 37.3607 238.142 37.678C238.702 37.9953 239.132 38.434 239.43 38.994C239.738 39.5447 239.892 40.17 239.892 40.87ZM238.576 40.604C238.576 40.1187 238.469 39.7033 238.254 39.358C238.04 39.0033 237.746 38.7373 237.372 38.56C237.008 38.3733 236.602 38.28 236.154 38.28C235.51 38.28 234.96 38.4853 234.502 38.896C234.054 39.3067 233.798 39.876 233.732 40.604H238.576ZM245.578 45L243.758 42.144L242.008 45H240.678L243.156 41.192L240.678 37.328H242.12L243.94 40.17L245.676 37.328H247.006L244.542 41.122L247.02 45H245.578ZM248.931 36.082C248.689 36.082 248.483 35.998 248.315 35.83C248.147 35.662 248.063 35.4567 248.063 35.214C248.063 34.9713 248.147 34.766 248.315 34.598C248.483 34.43 248.689 34.346 248.931 34.346C249.165 34.346 249.361 34.43 249.519 34.598C249.687 34.766 249.771 34.9713 249.771 35.214C249.771 35.4567 249.687 35.662 249.519 35.83C249.361 35.998 249.165 36.082 248.931 36.082ZM249.547 37.328V45H248.273V37.328H249.547ZM253.273 38.378V42.9C253.273 43.2733 253.352 43.5393 253.511 43.698C253.669 43.8473 253.945 43.922 254.337 43.922H255.275V45H254.127C253.417 45 252.885 44.8367 252.531 44.51C252.176 44.1833 251.999 43.6467 251.999 42.9V38.378H251.005V37.328H251.999V35.396H253.273V37.328H255.275V38.378H253.273Z" fill="#6A6A6A"/>
<rect x="171" y="72" width="132" height="32" rx="8" fill="white" fill-opacity="0.6"/>
<path d="M211.216 87.736C210.693 87.5307 210.292 87.232 210.012 86.84C209.732 86.448 209.592 85.972 209.592 85.412C209.592 84.908 209.718 84.4553 209.97 84.054C210.222 83.6433 210.595 83.3213 211.09 83.088C211.594 82.8453 212.201 82.724 212.91 82.724C213.619 82.724 214.221 82.8453 214.716 83.088C215.22 83.3213 215.598 83.6433 215.85 84.054C216.111 84.4553 216.242 84.908 216.242 85.412C216.242 85.9533 216.097 86.4293 215.808 86.84C215.519 87.2413 215.122 87.54 214.618 87.736C215.197 87.9133 215.654 88.226 215.99 88.674C216.335 89.1127 216.508 89.6447 216.508 90.27C216.508 90.8767 216.359 91.4087 216.06 91.866C215.761 92.314 215.337 92.664 214.786 92.916C214.245 93.1587 213.619 93.28 212.91 93.28C212.201 93.28 211.575 93.1587 211.034 92.916C210.502 92.664 210.087 92.314 209.788 91.866C209.489 91.4087 209.34 90.8767 209.34 90.27C209.34 89.6447 209.508 89.108 209.844 88.66C210.18 88.212 210.637 87.904 211.216 87.736ZM215.01 85.566C215.01 84.9967 214.823 84.558 214.45 84.25C214.077 83.942 213.563 83.788 212.91 83.788C212.266 83.788 211.757 83.942 211.384 84.25C211.011 84.558 210.824 85.0013 210.824 85.58C210.824 86.1027 211.015 86.5227 211.398 86.84C211.79 87.1573 212.294 87.316 212.91 87.316C213.535 87.316 214.039 87.1573 214.422 86.84C214.814 86.5133 215.01 86.0887 215.01 85.566ZM212.91 88.296C212.219 88.296 211.655 88.4593 211.216 88.786C210.777 89.1033 210.558 89.584 210.558 90.228C210.558 90.8253 210.768 91.306 211.188 91.67C211.617 92.034 212.191 92.216 212.91 92.216C213.629 92.216 214.198 92.034 214.618 91.67C215.038 91.306 215.248 90.8253 215.248 90.228C215.248 89.6027 215.033 89.1267 214.604 88.8C214.175 88.464 213.61 88.296 212.91 88.296ZM218.816 93.084C218.573 93.084 218.368 93 218.2 92.832C218.032 92.664 217.948 92.4587 217.948 92.216C217.948 91.9733 218.032 91.768 218.2 91.6C218.368 91.432 218.573 91.348 218.816 91.348C219.049 91.348 219.245 91.432 219.404 91.6C219.572 91.768 219.656 91.9733 219.656 92.216C219.656 92.4587 219.572 92.664 219.404 92.832C219.245 93 219.049 93.084 218.816 93.084ZM232.082 88.87C232.082 89.1127 232.068 89.3693 232.04 89.64H225.908C225.955 90.396 226.211 90.9887 226.678 91.418C227.154 91.838 227.728 92.048 228.4 92.048C228.951 92.048 229.408 91.922 229.772 91.67C230.145 91.4087 230.407 91.0633 230.556 90.634H231.928C231.723 91.3713 231.312 91.9733 230.696 92.44C230.08 92.8973 229.315 93.126 228.4 93.126C227.672 93.126 227.019 92.9627 226.44 92.636C225.871 92.3093 225.423 91.8473 225.096 91.25C224.769 90.6433 224.606 89.9433 224.606 89.15C224.606 88.3567 224.765 87.6613 225.082 87.064C225.399 86.4667 225.843 86.0093 226.412 85.692C226.991 85.3653 227.653 85.202 228.4 85.202C229.128 85.202 229.772 85.3607 230.332 85.678C230.892 85.9953 231.321 86.434 231.62 86.994C231.928 87.5447 232.082 88.17 232.082 88.87ZM230.766 88.604C230.766 88.1187 230.659 87.7033 230.444 87.358C230.229 87.0033 229.935 86.7373 229.562 86.56C229.198 86.3733 228.792 86.28 228.344 86.28C227.7 86.28 227.149 86.4853 226.692 86.896C226.244 87.3067 225.987 87.876 225.922 88.604H230.766ZM237.502 85.188C238.435 85.188 239.191 85.4727 239.77 86.042C240.348 86.602 240.638 87.414 240.638 88.478V93H239.378V88.66C239.378 87.8947 239.186 87.3113 238.804 86.91C238.421 86.4993 237.898 86.294 237.236 86.294C236.564 86.294 236.027 86.504 235.626 86.924C235.234 87.344 235.038 87.9553 235.038 88.758V93H233.764V85.328H235.038V86.42C235.29 86.028 235.63 85.7247 236.06 85.51C236.498 85.2953 236.979 85.188 237.502 85.188ZM242.243 89.136C242.243 88.352 242.401 87.666 242.719 87.078C243.036 86.4807 243.47 86.0187 244.021 85.692C244.581 85.3653 245.201 85.202 245.883 85.202C246.555 85.202 247.138 85.3467 247.633 85.636C248.127 85.9253 248.496 86.2893 248.739 86.728V85.328H250.027V93H248.739V91.572C248.487 92.02 248.109 92.3933 247.605 92.692C247.11 92.9813 246.531 93.126 245.869 93.126C245.187 93.126 244.571 92.958 244.021 92.622C243.47 92.286 243.036 91.8147 242.719 91.208C242.401 90.6013 242.243 89.9107 242.243 89.136ZM248.739 89.15C248.739 88.5713 248.622 88.0673 248.389 87.638C248.155 87.2087 247.838 86.882 247.437 86.658C247.045 86.4247 246.611 86.308 246.135 86.308C245.659 86.308 245.225 86.42 244.833 86.644C244.441 86.868 244.128 87.1947 243.895 87.624C243.661 88.0533 243.545 88.5573 243.545 89.136C243.545 89.724 243.661 90.2373 243.895 90.676C244.128 91.1053 244.441 91.4367 244.833 91.67C245.225 91.894 245.659 92.006 246.135 92.006C246.611 92.006 247.045 91.894 247.437 91.67C247.838 91.4367 248.155 91.1053 248.389 90.676C248.622 90.2373 248.739 89.7287 248.739 89.15ZM251.704 89.15C251.704 88.3567 251.862 87.666 252.18 87.078C252.497 86.4807 252.936 86.0187 253.496 85.692C254.065 85.3653 254.714 85.202 255.442 85.202C256.384 85.202 257.159 85.4307 257.766 85.888C258.382 86.3453 258.788 86.98 258.984 87.792H257.612C257.481 87.3253 257.224 86.9567 256.842 86.686C256.468 86.4153 256.002 86.28 255.442 86.28C254.714 86.28 254.126 86.532 253.678 87.036C253.23 87.5307 253.006 88.2353 253.006 89.15C253.006 90.074 253.23 90.788 253.678 91.292C254.126 91.796 254.714 92.048 255.442 92.048C256.002 92.048 256.468 91.9173 256.842 91.656C257.215 91.3947 257.472 91.0213 257.612 90.536H258.984C258.778 91.32 258.368 91.95 257.752 92.426C257.136 92.8927 256.366 93.126 255.442 93.126C254.714 93.126 254.065 92.9627 253.496 92.636C252.936 92.3093 252.497 91.8473 252.18 91.25C251.862 90.6527 251.704 89.9527 251.704 89.15ZM262.237 86.378V90.9C262.237 91.2733 262.317 91.5393 262.475 91.698C262.634 91.8473 262.909 91.922 263.301 91.922H264.239V93H263.091C262.382 93 261.85 92.8367 261.495 92.51C261.141 92.1833 260.963 91.6467 260.963 90.9V86.378H259.969V85.328H260.963V83.396H262.237V85.328H264.239V86.378H262.237Z" fill="#6A6A6A"/>
<rect x="171" y="120" width="132" height="32" rx="8" fill="white" fill-opacity="0.6"/>
<path d="M212.506 138.284C212.599 138.816 212.814 139.227 213.15 139.516C213.495 139.805 213.957 139.95 214.536 139.95C215.311 139.95 215.88 139.647 216.244 139.04C216.617 138.433 216.795 137.411 216.776 135.974C216.58 136.394 216.253 136.725 215.796 136.968C215.339 137.201 214.83 137.318 214.27 137.318C213.645 137.318 213.085 137.192 212.59 136.94C212.105 136.679 211.722 136.301 211.442 135.806C211.162 135.311 211.022 134.714 211.022 134.014C211.022 133.015 211.311 132.213 211.89 131.606C212.469 130.99 213.29 130.682 214.354 130.682C215.661 130.682 216.575 131.107 217.098 131.956C217.63 132.805 217.896 134.07 217.896 135.75C217.896 136.926 217.789 137.897 217.574 138.662C217.369 139.427 217.014 140.011 216.51 140.412C216.015 140.813 215.334 141.014 214.466 141.014C213.514 141.014 212.772 140.757 212.24 140.244C211.708 139.731 211.405 139.077 211.33 138.284H212.506ZM214.48 136.24C215.105 136.24 215.619 136.049 216.02 135.666C216.421 135.274 216.622 134.747 216.622 134.084C216.622 133.384 216.426 132.819 216.034 132.39C215.642 131.961 215.091 131.746 214.382 131.746C213.729 131.746 213.206 131.951 212.814 132.362C212.431 132.773 212.24 133.314 212.24 133.986C212.24 134.667 212.431 135.213 212.814 135.624C213.197 136.035 213.752 136.24 214.48 136.24ZM220.302 141.084C220.06 141.084 219.854 141 219.686 140.832C219.518 140.664 219.434 140.459 219.434 140.216C219.434 139.973 219.518 139.768 219.686 139.6C219.854 139.432 220.06 139.348 220.302 139.348C220.536 139.348 220.732 139.432 220.89 139.6C221.058 139.768 221.142 139.973 221.142 140.216C221.142 140.459 221.058 140.664 220.89 140.832C220.732 141 220.536 141.084 220.302 141.084ZM226.092 137.136C226.092 136.352 226.251 135.666 226.568 135.078C226.886 134.481 227.32 134.019 227.87 133.692C228.43 133.365 229.056 133.202 229.746 133.202C230.344 133.202 230.899 133.342 231.412 133.622C231.926 133.893 232.318 134.252 232.588 134.7V130.64H233.876V141H232.588V139.558C232.336 140.015 231.963 140.393 231.468 140.692C230.974 140.981 230.395 141.126 229.732 141.126C229.051 141.126 228.43 140.958 227.87 140.622C227.32 140.286 226.886 139.815 226.568 139.208C226.251 138.601 226.092 137.911 226.092 137.136ZM232.588 137.15C232.588 136.571 232.472 136.067 232.238 135.638C232.005 135.209 231.688 134.882 231.286 134.658C230.894 134.425 230.46 134.308 229.984 134.308C229.508 134.308 229.074 134.42 228.682 134.644C228.29 134.868 227.978 135.195 227.744 135.624C227.511 136.053 227.394 136.557 227.394 137.136C227.394 137.724 227.511 138.237 227.744 138.676C227.978 139.105 228.29 139.437 228.682 139.67C229.074 139.894 229.508 140.006 229.984 140.006C230.46 140.006 230.894 139.894 231.286 139.67C231.688 139.437 232.005 139.105 232.238 138.676C232.472 138.237 232.588 137.729 232.588 137.15ZM237.303 134.574C237.527 134.135 237.845 133.795 238.255 133.552C238.675 133.309 239.184 133.188 239.781 133.188V134.504H239.445C238.017 134.504 237.303 135.279 237.303 136.828V141H236.029V133.328H237.303V134.574ZM248.056 133.328V141H246.782V139.866C246.539 140.258 246.198 140.566 245.76 140.79C245.33 141.005 244.854 141.112 244.332 141.112C243.734 141.112 243.198 140.991 242.722 140.748C242.246 140.496 241.868 140.123 241.588 139.628C241.317 139.133 241.182 138.531 241.182 137.822V133.328H242.442V137.654C242.442 138.41 242.633 138.993 243.016 139.404C243.398 139.805 243.921 140.006 244.584 140.006C245.265 140.006 245.802 139.796 246.194 139.376C246.586 138.956 246.782 138.345 246.782 137.542V133.328H248.056ZM259.433 133.188C260.03 133.188 260.562 133.314 261.029 133.566C261.496 133.809 261.864 134.177 262.135 134.672C262.406 135.167 262.541 135.769 262.541 136.478V141H261.281V136.66C261.281 135.895 261.09 135.311 260.707 134.91C260.334 134.499 259.825 134.294 259.181 134.294C258.518 134.294 257.991 134.509 257.599 134.938C257.207 135.358 257.011 135.969 257.011 136.772V141H255.751V136.66C255.751 135.895 255.56 135.311 255.177 134.91C254.804 134.499 254.295 134.294 253.651 134.294C252.988 134.294 252.461 134.509 252.069 134.938C251.677 135.358 251.481 135.969 251.481 136.772V141H250.207V133.328H251.481V134.434C251.733 134.033 252.069 133.725 252.489 133.51C252.918 133.295 253.39 133.188 253.903 133.188C254.547 133.188 255.116 133.333 255.611 133.622C256.106 133.911 256.474 134.336 256.717 134.896C256.932 134.355 257.286 133.935 257.781 133.636C258.276 133.337 258.826 133.188 259.433 133.188Z" fill="#6A6A6A"/>
<rect x="171" y="216" width="132" height="32" rx="8" fill="white" fill-opacity="0.6"/>
<path d="M208.032 228.04V226.878H210.664V237H209.376V228.04H208.032ZM212.516 228.04V226.878H215.148V237H213.86V228.04H212.516ZM217.953 237.084C217.71 237.084 217.505 237 217.337 236.832C217.169 236.664 217.085 236.459 217.085 236.216C217.085 235.973 217.169 235.768 217.337 235.6C217.505 235.432 217.71 235.348 217.953 235.348C218.186 235.348 218.382 235.432 218.541 235.6C218.709 235.768 218.793 235.973 218.793 236.216C218.793 236.459 218.709 236.664 218.541 236.832C218.382 237 218.186 237.084 217.953 237.084ZM225.773 230.378V234.9C225.773 235.273 225.852 235.539 226.011 235.698C226.169 235.847 226.445 235.922 226.837 235.922H227.775V237H226.627C225.917 237 225.385 236.837 225.031 236.51C224.676 236.183 224.499 235.647 224.499 234.9V230.378H223.505V229.328H224.499V227.396H225.773V229.328H227.775V230.378H225.773ZM228.842 233.136C228.842 232.352 229.001 231.666 229.318 231.078C229.636 230.481 230.07 230.019 230.62 229.692C231.18 229.365 231.801 229.202 232.482 229.202C233.154 229.202 233.738 229.347 234.232 229.636C234.727 229.925 235.096 230.289 235.338 230.728V229.328H236.626V237H235.338V235.572C235.086 236.02 234.708 236.393 234.204 236.692C233.71 236.981 233.131 237.126 232.468 237.126C231.787 237.126 231.171 236.958 230.62 236.622C230.07 236.286 229.636 235.815 229.318 235.208C229.001 234.601 228.842 233.911 228.842 233.136ZM235.338 233.15C235.338 232.571 235.222 232.067 234.988 231.638C234.755 231.209 234.438 230.882 234.036 230.658C233.644 230.425 233.21 230.308 232.734 230.308C232.258 230.308 231.824 230.42 231.432 230.644C231.04 230.868 230.728 231.195 230.494 231.624C230.261 232.053 230.144 232.557 230.144 233.136C230.144 233.724 230.261 234.237 230.494 234.676C230.728 235.105 231.04 235.437 231.432 235.67C231.824 235.894 232.258 236.006 232.734 236.006C233.21 236.006 233.644 235.894 234.036 235.67C234.438 235.437 234.755 235.105 234.988 234.676C235.222 234.237 235.338 233.729 235.338 233.15ZM240.053 230.574C240.277 230.135 240.595 229.795 241.005 229.552C241.425 229.309 241.934 229.188 242.531 229.188V230.504H242.195C240.767 230.504 240.053 231.279 240.053 232.828V237H238.779V229.328H240.053V230.574ZM247.166 229.202C247.828 229.202 248.407 229.347 248.902 229.636C249.406 229.925 249.779 230.289 250.022 230.728V229.328H251.31V237.168C251.31 237.868 251.16 238.489 250.862 239.03C250.563 239.581 250.134 240.01 249.574 240.318C249.023 240.626 248.379 240.78 247.642 240.78C246.634 240.78 245.794 240.542 245.122 240.066C244.45 239.59 244.053 238.941 243.932 238.12H245.192C245.332 238.587 245.621 238.96 246.06 239.24C246.498 239.529 247.026 239.674 247.642 239.674C248.342 239.674 248.911 239.455 249.35 239.016C249.798 238.577 250.022 237.961 250.022 237.168V235.558C249.77 236.006 249.396 236.379 248.902 236.678C248.407 236.977 247.828 237.126 247.166 237.126C246.484 237.126 245.864 236.958 245.304 236.622C244.753 236.286 244.319 235.815 244.002 235.208C243.684 234.601 243.526 233.911 243.526 233.136C243.526 232.352 243.684 231.666 244.002 231.078C244.319 230.481 244.753 230.019 245.304 229.692C245.864 229.365 246.484 229.202 247.166 229.202ZM250.022 233.15C250.022 232.571 249.905 232.067 249.672 231.638C249.438 231.209 249.121 230.882 248.72 230.658C248.328 230.425 247.894 230.308 247.418 230.308C246.942 230.308 246.508 230.42 246.116 230.644C245.724 230.868 245.411 231.195 245.178 231.624C244.944 232.053 244.828 232.557 244.828 233.136C244.828 233.724 244.944 234.237 245.178 234.676C245.411 235.105 245.724 235.437 246.116 235.67C246.508 235.894 246.942 236.006 247.418 236.006C247.894 236.006 248.328 235.894 248.72 235.67C249.121 235.437 249.438 235.105 249.672 234.676C249.905 234.237 250.022 233.729 250.022 233.15ZM260.463 232.87C260.463 233.113 260.449 233.369 260.421 233.64H254.289C254.335 234.396 254.592 234.989 255.059 235.418C255.535 235.838 256.109 236.048 256.781 236.048C257.331 236.048 257.789 235.922 258.153 235.67C258.526 235.409 258.787 235.063 258.937 234.634H260.309C260.103 235.371 259.693 235.973 259.077 236.44C258.461 236.897 257.695 237.126 256.781 237.126C256.053 237.126 255.399 236.963 254.821 236.636C254.251 236.309 253.803 235.847 253.477 235.25C253.15 234.643 252.987 233.943 252.987 233.15C252.987 232.357 253.145 231.661 253.463 231.064C253.78 230.467 254.223 230.009 254.793 229.692C255.371 229.365 256.034 229.202 256.781 229.202C257.509 229.202 258.153 229.361 258.713 229.678C259.273 229.995 259.702 230.434 260.001 230.994C260.309 231.545 260.463 232.17 260.463 232.87ZM259.147 232.604C259.147 232.119 259.039 231.703 258.825 231.358C258.61 231.003 258.316 230.737 257.943 230.56C257.579 230.373 257.173 230.28 256.725 230.28C256.081 230.28 255.53 230.485 255.073 230.896C254.625 231.307 254.368 231.876 254.303 232.604H259.147ZM263.698 230.378V234.9C263.698 235.273 263.778 235.539 263.936 235.698C264.095 235.847 264.37 235.922 264.762 235.922H265.7V237H264.552C263.843 237 263.311 236.837 262.956 236.51C262.602 236.183 262.424 235.647 262.424 234.9V230.378H261.43V229.328H262.424V227.396H263.698V229.328H265.7V230.378H263.698Z" fill="#6A6A6A"/>
<rect x="171" y="168" width="132" height="32" rx="8" fill="white" fill-opacity="0.6"/>
<path d="M197.532 180.04V178.878H200.164V189H198.876V180.04H197.532ZM202.352 183.834C202.352 182.229 202.614 180.978 203.136 180.082C203.659 179.177 204.574 178.724 205.88 178.724C207.178 178.724 208.088 179.177 208.61 180.082C209.133 180.978 209.394 182.229 209.394 183.834C209.394 185.467 209.133 186.737 208.61 187.642C208.088 188.547 207.178 189 205.88 189C204.574 189 203.659 188.547 203.136 187.642C202.614 186.737 202.352 185.467 202.352 183.834ZM208.134 183.834C208.134 183.022 208.078 182.336 207.966 181.776C207.864 181.207 207.644 180.749 207.308 180.404C206.982 180.059 206.506 179.886 205.88 179.886C205.246 179.886 204.76 180.059 204.424 180.404C204.098 180.749 203.878 181.207 203.766 181.776C203.664 182.336 203.612 183.022 203.612 183.834C203.612 184.674 203.664 185.379 203.766 185.948C203.878 186.517 204.098 186.975 204.424 187.32C204.76 187.665 205.246 187.838 205.88 187.838C206.506 187.838 206.982 187.665 207.308 187.32C207.644 186.975 207.864 186.517 207.966 185.948C208.078 185.379 208.134 184.674 208.134 183.834ZM211.759 189.084C211.517 189.084 211.311 189 211.143 188.832C210.975 188.664 210.891 188.459 210.891 188.216C210.891 187.973 210.975 187.768 211.143 187.6C211.311 187.432 211.517 187.348 211.759 187.348C211.993 187.348 212.189 187.432 212.347 187.6C212.515 187.768 212.599 187.973 212.599 188.216C212.599 188.459 212.515 188.664 212.347 188.832C212.189 189 211.993 189.084 211.759 189.084ZM221.147 182.378H219.537V189H218.263V182.378H217.269V181.328H218.263V180.782C218.263 179.923 218.483 179.298 218.921 178.906C219.369 178.505 220.083 178.304 221.063 178.304V179.368C220.503 179.368 220.107 179.48 219.873 179.704C219.649 179.919 219.537 180.278 219.537 180.782V181.328H221.147V182.378ZM223.907 182.574C224.131 182.135 224.448 181.795 224.859 181.552C225.279 181.309 225.787 181.188 226.385 181.188V182.504H226.049C224.621 182.504 223.907 183.279 223.907 184.828V189H222.633V181.328H223.907V182.574ZM234.855 184.87C234.855 185.113 234.841 185.369 234.813 185.64H228.681C228.728 186.396 228.985 186.989 229.451 187.418C229.927 187.838 230.501 188.048 231.173 188.048C231.724 188.048 232.181 187.922 232.545 187.67C232.919 187.409 233.18 187.063 233.329 186.634H234.701C234.496 187.371 234.085 187.973 233.469 188.44C232.853 188.897 232.088 189.126 231.173 189.126C230.445 189.126 229.792 188.963 229.213 188.636C228.644 188.309 228.196 187.847 227.869 187.25C227.543 186.643 227.379 185.943 227.379 185.15C227.379 184.357 227.538 183.661 227.855 183.064C228.173 182.467 228.616 182.009 229.185 181.692C229.764 181.365 230.427 181.202 231.173 181.202C231.901 181.202 232.545 181.361 233.105 181.678C233.665 181.995 234.095 182.434 234.393 182.994C234.701 183.545 234.855 184.17 234.855 184.87ZM233.539 184.604C233.539 184.119 233.432 183.703 233.217 183.358C233.003 183.003 232.709 182.737 232.335 182.56C231.971 182.373 231.565 182.28 231.117 182.28C230.473 182.28 229.923 182.485 229.465 182.896C229.017 183.307 228.761 183.876 228.695 184.604H233.539ZM236.061 185.136C236.061 184.352 236.22 183.666 236.537 183.078C236.854 182.481 237.288 182.019 237.839 181.692C238.399 181.365 239.024 181.202 239.715 181.202C240.378 181.202 240.956 181.351 241.451 181.65C241.955 181.939 242.324 182.299 242.557 182.728V181.328H243.845V192.64H242.557V187.586C242.314 188.015 241.941 188.379 241.437 188.678C240.933 188.977 240.345 189.126 239.673 189.126C239.001 189.126 238.39 188.958 237.839 188.622C237.288 188.286 236.854 187.815 236.537 187.208C236.22 186.601 236.061 185.911 236.061 185.136ZM242.557 185.15C242.557 184.571 242.44 184.067 242.207 183.638C241.974 183.209 241.656 182.882 241.255 182.658C240.863 182.425 240.429 182.308 239.953 182.308C239.477 182.308 239.043 182.42 238.651 182.644C238.259 182.868 237.946 183.195 237.713 183.624C237.48 184.053 237.363 184.557 237.363 185.136C237.363 185.724 237.48 186.237 237.713 186.676C237.946 187.105 238.259 187.437 238.651 187.67C239.043 187.894 239.477 188.006 239.953 188.006C240.429 188.006 240.863 187.894 241.255 187.67C241.656 187.437 241.974 187.105 242.207 186.676C242.44 186.237 242.557 185.729 242.557 185.15ZM252.802 181.328V189H251.528V187.866C251.285 188.258 250.945 188.566 250.506 188.79C250.077 189.005 249.601 189.112 249.078 189.112C248.481 189.112 247.944 188.991 247.468 188.748C246.992 188.496 246.614 188.123 246.334 187.628C246.063 187.133 245.928 186.531 245.928 185.822V181.328H247.188V185.654C247.188 186.41 247.379 186.993 247.762 187.404C248.145 187.805 248.667 188.006 249.33 188.006C250.011 188.006 250.548 187.796 250.94 187.376C251.332 186.956 251.528 186.345 251.528 185.542V181.328H252.802ZM261.953 184.87C261.953 185.113 261.939 185.369 261.911 185.64H255.779C255.826 186.396 256.082 186.989 256.549 187.418C257.025 187.838 257.599 188.048 258.271 188.048C258.822 188.048 259.279 187.922 259.643 187.67C260.016 187.409 260.278 187.063 260.427 186.634H261.799C261.594 187.371 261.183 187.973 260.567 188.44C259.951 188.897 259.186 189.126 258.271 189.126C257.543 189.126 256.89 188.963 256.311 188.636C255.742 188.309 255.294 187.847 254.967 187.25C254.64 186.643 254.477 185.943 254.477 185.15C254.477 184.357 254.636 183.661 254.953 183.064C255.27 182.467 255.714 182.009 256.283 181.692C256.862 181.365 257.524 181.202 258.271 181.202C258.999 181.202 259.643 181.361 260.203 181.678C260.763 181.995 261.192 182.434 261.491 182.994C261.799 183.545 261.953 184.17 261.953 184.87ZM260.637 184.604C260.637 184.119 260.53 183.703 260.315 183.358C260.1 183.003 259.806 182.737 259.433 182.56C259.069 182.373 258.663 182.28 258.215 182.28C257.571 182.28 257.02 182.485 256.563 182.896C256.115 183.307 255.858 183.876 255.793 184.604H260.637ZM267.373 181.188C268.306 181.188 269.062 181.473 269.641 182.042C270.219 182.602 270.509 183.414 270.509 184.478V189H269.249V184.66C269.249 183.895 269.057 183.311 268.675 182.91C268.292 182.499 267.769 182.294 267.107 182.294C266.435 182.294 265.898 182.504 265.497 182.924C265.105 183.344 264.909 183.955 264.909 184.758V189H263.635V181.328H264.909V182.42C265.161 182.028 265.501 181.725 265.931 181.51C266.369 181.295 266.85 181.188 267.373 181.188ZM274.144 182.378V186.9C274.144 187.273 274.223 187.539 274.382 187.698C274.54 187.847 274.816 187.922 275.208 187.922H276.146V189H274.998C274.288 189 273.756 188.837 273.402 188.51C273.047 188.183 272.87 187.647 272.87 186.9V182.378H271.876V181.328H272.87V179.396H274.144V181.328H276.146V182.378H274.144Z" fill="#6A6A6A"/>
<rect x="171" y="264" width="132" height="32" rx="8" fill="white" fill-opacity="0.6"/>
<path d="M206.532 276.04V274.878H209.164V285H207.876V276.04H206.532ZM211.198 283.978C212.384 283.026 213.312 282.247 213.984 281.64C214.656 281.024 215.221 280.385 215.678 279.722C216.145 279.05 216.378 278.392 216.378 277.748C216.378 277.141 216.229 276.665 215.93 276.32C215.641 275.965 215.17 275.788 214.516 275.788C213.882 275.788 213.387 275.989 213.032 276.39C212.687 276.782 212.5 277.309 212.472 277.972H211.24C211.278 276.927 211.595 276.119 212.192 275.55C212.79 274.981 213.56 274.696 214.502 274.696C215.464 274.696 216.224 274.962 216.784 275.494C217.354 276.026 217.638 276.759 217.638 277.692C217.638 278.467 217.405 279.223 216.938 279.96C216.481 280.688 215.958 281.332 215.37 281.892C214.782 282.443 214.031 283.087 213.116 283.824H217.932V284.888H211.198V283.978ZM220.021 285.084C219.778 285.084 219.573 285 219.405 284.832C219.237 284.664 219.153 284.459 219.153 284.216C219.153 283.973 219.237 283.768 219.405 283.6C219.573 283.432 219.778 283.348 220.021 283.348C220.254 283.348 220.45 283.432 220.609 283.6C220.777 283.768 220.861 283.973 220.861 284.216C220.861 284.459 220.777 284.664 220.609 284.832C220.45 285 220.254 285.084 220.021 285.084ZM229.633 285.126C228.914 285.126 228.261 284.963 227.673 284.636C227.094 284.309 226.637 283.847 226.301 283.25C225.974 282.643 225.811 281.943 225.811 281.15C225.811 280.366 225.979 279.675 226.315 279.078C226.66 278.471 227.127 278.009 227.715 277.692C228.303 277.365 228.961 277.202 229.689 277.202C230.417 277.202 231.075 277.365 231.663 277.692C232.251 278.009 232.713 278.467 233.049 279.064C233.394 279.661 233.567 280.357 233.567 281.15C233.567 281.943 233.39 282.643 233.035 283.25C232.69 283.847 232.218 284.309 231.621 284.636C231.024 284.963 230.361 285.126 229.633 285.126ZM229.633 284.006C230.09 284.006 230.52 283.899 230.921 283.684C231.322 283.469 231.644 283.147 231.887 282.718C232.139 282.289 232.265 281.766 232.265 281.15C232.265 280.534 232.144 280.011 231.901 279.582C231.658 279.153 231.341 278.835 230.949 278.63C230.557 278.415 230.132 278.308 229.675 278.308C229.208 278.308 228.779 278.415 228.387 278.63C228.004 278.835 227.696 279.153 227.463 279.582C227.23 280.011 227.113 280.534 227.113 281.15C227.113 281.775 227.225 282.303 227.449 282.732C227.682 283.161 227.99 283.483 228.373 283.698C228.756 283.903 229.176 284.006 229.633 284.006ZM236.516 278.574C236.74 278.135 237.057 277.795 237.468 277.552C237.888 277.309 238.397 277.188 238.994 277.188V278.504H238.658C237.23 278.504 236.516 279.279 236.516 280.828V285H235.242V277.328H236.516V278.574ZM243.629 277.202C244.291 277.202 244.87 277.347 245.365 277.636C245.869 277.925 246.242 278.289 246.485 278.728V277.328H247.773V285.168C247.773 285.868 247.623 286.489 247.325 287.03C247.026 287.581 246.597 288.01 246.037 288.318C245.486 288.626 244.842 288.78 244.105 288.78C243.097 288.78 242.257 288.542 241.585 288.066C240.913 287.59 240.516 286.941 240.395 286.12H241.655C241.795 286.587 242.084 286.96 242.523 287.24C242.961 287.529 243.489 287.674 244.105 287.674C244.805 287.674 245.374 287.455 245.813 287.016C246.261 286.577 246.485 285.961 246.485 285.168V283.558C246.233 284.006 245.859 284.379 245.365 284.678C244.87 284.977 244.291 285.126 243.629 285.126C242.947 285.126 242.327 284.958 241.767 284.622C241.216 284.286 240.782 283.815 240.465 283.208C240.147 282.601 239.989 281.911 239.989 281.136C239.989 280.352 240.147 279.666 240.465 279.078C240.782 278.481 241.216 278.019 241.767 277.692C242.327 277.365 242.947 277.202 243.629 277.202ZM246.485 281.15C246.485 280.571 246.368 280.067 246.135 279.638C245.901 279.209 245.584 278.882 245.183 278.658C244.791 278.425 244.357 278.308 243.881 278.308C243.405 278.308 242.971 278.42 242.579 278.644C242.187 278.868 241.874 279.195 241.641 279.624C241.407 280.053 241.291 280.557 241.291 281.136C241.291 281.724 241.407 282.237 241.641 282.676C241.874 283.105 242.187 283.437 242.579 283.67C242.971 283.894 243.405 284.006 243.881 284.006C244.357 284.006 244.791 283.894 245.183 283.67C245.584 283.437 245.901 283.105 246.135 282.676C246.368 282.237 246.485 281.729 246.485 281.15ZM249.45 281.136C249.45 280.352 249.608 279.666 249.926 279.078C250.243 278.481 250.677 278.019 251.228 277.692C251.788 277.365 252.408 277.202 253.09 277.202C253.762 277.202 254.345 277.347 254.84 277.636C255.334 277.925 255.703 278.289 255.946 278.728V277.328H257.234V285H255.946V283.572C255.694 284.02 255.316 284.393 254.812 284.692C254.317 284.981 253.738 285.126 253.076 285.126C252.394 285.126 251.778 284.958 251.228 284.622C250.677 284.286 250.243 283.815 249.926 283.208C249.608 282.601 249.45 281.911 249.45 281.136ZM255.946 281.15C255.946 280.571 255.829 280.067 255.596 279.638C255.362 279.209 255.045 278.882 254.644 278.658C254.252 278.425 253.818 278.308 253.342 278.308C252.866 278.308 252.432 278.42 252.04 278.644C251.648 278.868 251.335 279.195 251.102 279.624C250.868 280.053 250.752 280.557 250.752 281.136C250.752 281.724 250.868 282.237 251.102 282.676C251.335 283.105 251.648 283.437 252.04 283.67C252.432 283.894 252.866 284.006 253.342 284.006C253.818 284.006 254.252 283.894 254.644 283.67C255.045 283.437 255.362 283.105 255.596 282.676C255.829 282.237 255.946 281.729 255.946 281.15ZM263.125 277.188C264.058 277.188 264.814 277.473 265.393 278.042C265.971 278.602 266.261 279.414 266.261 280.478V285H265.001V280.66C265.001 279.895 264.809 279.311 264.427 278.91C264.044 278.499 263.521 278.294 262.859 278.294C262.187 278.294 261.65 278.504 261.249 278.924C260.857 279.344 260.661 279.955 260.661 280.758V285H259.387V277.328H260.661V278.42C260.913 278.028 261.253 277.725 261.683 277.51C262.121 277.295 262.602 277.188 263.125 277.188Z" fill="#6A6A6A"/>
<g filter="url(#filter0_b_133_11198)">
<rect width="327" height="320" rx="8" fill="black" fill-opacity="0.05"/>
</g>
<defs>
<filter id="filter0_b_133_11198" x="-24" y="-24" width="375" height="368" filterUnits="userSpaceOnUse" color-interpolation-filters="sRGB">
<feFlood flood-opacity="0" result="BackgroundImageFix"/>
<feGaussianBlur in="BackgroundImageFix" stdDeviation="12"/>
<feComposite in2="SourceAlpha" operator="in" result="effect1_backgroundBlur_133_11198"/>
<feBlend mode="normal" in="SourceGraphic" in2="effect1_backgroundBlur_133_11198" result="shape"/>
</filter>
</defs>
</svg>
