<svg width="376" height="812" viewBox="0 0 376 812" fill="none" xmlns="http://www.w3.org/2000/svg">
<g clip-path="url(#clip0_34_6811)">
<rect x="0.5" y="0.668213" width="375" height="811.332" fill="#FCBF07"/>
<g filter="url(#filter0_d_34_6811)">
<rect x="48.5" y="809.668" width="332" height="56" rx="10" fill="url(#paint0_linear_34_6811)"/>
</g>
<path d="M11.2465 36.3475L13.0694 47.2933C26.5066 127.98 126.34 161.828 198.148 110.043L208.268 102.745C275.751 54.0791 369.54 86.2692 381.556 162.22L385.513 187.227C394.251 242.458 457.353 271.028 512.013 244.5V244.5" stroke="#FFD6A6" stroke-width="0.653416"/>
<path d="M8.18207 43.22L10.0049 54.1658C23.4421 134.853 123.275 168.701 195.083 116.916L205.204 109.617C272.686 60.9516 366.476 93.1417 378.492 169.092L382.448 194.099C391.186 249.33 454.288 277.9 508.948 251.372V251.372" stroke="#FFD6A6" stroke-width="0.653416"/>
<path d="M5.12347 50.0921L6.94633 61.0379C20.3836 141.725 120.217 175.573 192.024 123.788L202.145 116.489C269.627 67.8237 363.417 100.014 375.433 175.964L379.389 200.971C388.128 256.203 451.23 284.772 505.89 258.244V258.244" stroke="#FFD6A6" stroke-width="0.653416"/>
<path d="M2.05902 56.9646L3.88187 67.9103C17.3191 148.597 117.152 182.445 188.96 130.66L199.081 123.362C266.563 74.6962 360.353 106.886 372.369 182.837L376.325 207.844C385.063 263.075 448.165 291.645 502.825 265.117V265.117" stroke="#FFD6A6" stroke-width="0.653416"/>
<path d="M-1.00543 63.8371L0.817419 74.7828C14.2546 155.47 114.088 189.318 185.896 137.533L196.016 130.234C263.499 81.5687 357.288 113.759 369.304 189.709L373.261 214.716C381.999 269.947 445.101 298.517 499.761 271.989V271.989" stroke="#FFD6A6" stroke-width="0.653416"/>
<path d="M-4.06989 70.7096L-2.24703 81.6553C11.1902 162.342 111.023 196.19 182.831 144.405L192.952 137.107C260.434 88.4412 354.224 120.631 366.24 196.582L370.196 221.589C378.934 276.82 442.036 305.39 496.696 278.862V278.862" stroke="#FFD6A6" stroke-width="0.653416"/>
<path d="M-7.12848 77.5817L-5.30563 88.5274C8.1316 169.215 107.965 203.063 179.773 151.278L189.893 143.979C257.376 95.3133 351.165 127.503 363.181 203.454L367.138 228.461C375.876 283.692 438.978 312.262 493.638 285.734V285.734" stroke="#FFD6A6" stroke-width="0.653416"/>
<path d="M-10.1929 84.4537L-8.37008 95.3995C5.06715 176.087 104.9 209.935 176.708 158.15L186.829 150.851C254.311 102.185 348.101 134.375 360.117 210.326L364.073 235.333C372.811 290.564 435.913 319.134 490.573 292.606V292.606" stroke="#FFD6A6" stroke-width="0.653416"/>
<path d="M-13.2574 91.3262L-11.4345 102.272C2.00269 182.959 101.836 216.807 173.644 165.022L183.764 157.723C251.247 109.058 345.036 141.248 357.052 217.198L361.009 242.205C369.747 297.437 432.849 326.006 487.509 299.478V299.478" stroke="#FFD6A6" stroke-width="0.653416"/>
<path d="M-16.3238 98.1987L-14.5009 109.144C-1.06371 189.832 98.7693 223.68 170.577 171.895L180.698 164.596C248.18 115.93 341.97 148.12 353.986 224.071L357.942 249.078C366.68 304.309 429.783 332.879 484.442 306.351V306.351" stroke="#FFD6A6" stroke-width="0.653416"/>
<path d="M-19.3824 105.071L-17.5595 116.017C-4.12231 196.704 95.7107 230.552 167.519 178.767L177.639 171.468C245.122 122.802 338.911 154.992 350.927 230.943L354.884 255.95C363.622 311.181 426.724 339.751 481.384 313.223V313.223" stroke="#FFD6A6" stroke-width="0.653416"/>
<path d="M-22.4468 111.943L-20.624 122.889C-7.18676 203.576 92.6462 237.424 164.454 185.639L174.575 178.34C242.057 129.675 335.847 161.865 347.863 237.816L351.819 262.822C360.557 318.054 423.66 346.623 478.319 320.095V320.095" stroke="#FFD6A6" stroke-width="0.653416"/>
<path d="M-25.5113 118.815L-23.6884 129.761C-10.2512 210.448 89.5818 244.296 161.39 192.511L171.51 185.213C238.993 136.547 332.782 168.737 344.798 244.688L348.755 269.695C357.493 324.926 420.595 353.495 475.255 326.968V326.968" stroke="#FFD6A6" stroke-width="0.653416"/>
<path d="M-28.5757 125.687L-26.7529 136.633C-13.3157 217.32 86.5173 251.168 158.325 199.383L168.446 192.085C235.928 143.419 329.718 175.609 341.734 251.56L345.69 276.567C354.428 331.798 417.531 360.367 472.19 333.84V333.84" stroke="#FFD6A6" stroke-width="0.653416"/>
<path d="M-31.6402 132.56L-29.8173 143.506C-16.3801 224.193 83.4529 258.041 155.261 206.256L165.382 198.957C232.864 150.292 326.653 182.482 338.67 258.432L342.626 283.439C351.364 338.67 414.466 367.24 469.126 340.712V340.712" stroke="#FFD6A6" stroke-width="0.653416"/>
<path d="M-34.6285 139.269L-32.8056 150.215C-19.3684 230.902 80.4646 264.75 152.273 212.965L162.393 205.667C229.876 157.001 323.665 189.191 335.681 265.142L339.638 290.149C348.376 345.38 411.478 373.949 466.138 347.422V347.422" stroke="#FFD6A6" stroke-width="0.653416"/>
<path d="M-37.6207 145.979L-35.7978 156.925C-22.3606 237.612 77.4724 271.46 149.28 219.675L159.401 212.377C226.883 163.711 320.673 195.901 332.689 271.852L336.645 296.859C345.383 352.09 408.486 380.659 463.145 354.132V354.132" stroke="#FFD6A6" stroke-width="0.653416"/>
<path d="M-40.6089 152.689L-38.7861 163.635C-25.3489 244.322 74.4841 278.17 146.292 226.385L156.413 219.086C223.895 170.421 317.685 202.611 329.701 278.562L333.657 303.568C342.395 358.8 405.497 387.369 460.157 360.841V360.841" stroke="#FFD6A6" stroke-width="0.653416"/>
<path d="M-43.6011 159.399L-41.7783 170.345C-28.3411 251.032 71.4919 284.88 143.3 233.095L153.421 225.796C220.903 177.13 314.693 209.32 326.709 285.271L330.665 310.278C339.403 365.509 402.505 394.079 457.165 367.551V367.551" stroke="#FFD6A6" stroke-width="0.653416"/>
<path d="M-46.5894 166.108L-44.7666 177.054C-31.3293 257.741 68.5037 291.589 140.312 239.804L150.432 232.505C217.915 183.84 311.704 216.03 323.72 291.981L327.677 316.987C336.415 372.219 399.517 400.788 454.177 374.26V374.26" stroke="#FFD6A6" stroke-width="0.653416"/>
<path d="M-49.5836 172.818L-47.7607 183.764C-34.3235 264.451 65.5095 298.299 137.317 246.514L147.438 239.215C214.92 190.549 308.71 222.739 320.726 298.69L324.682 323.697C333.42 378.928 396.523 407.498 451.182 380.97V380.97" stroke="#FFD6A6" stroke-width="0.653416"/>
<path d="M-52.5699 179.528L-50.747 190.473C-37.3098 271.161 62.5232 305.009 134.331 253.224L144.452 245.925C211.934 197.259 305.724 229.449 317.74 305.4L321.696 330.407C330.434 385.638 393.536 414.208 448.196 387.68V387.68" stroke="#FFD6A6" stroke-width="0.653416"/>
<path d="M-55.564 186.237L-53.7412 197.183C-40.3039 277.87 59.5291 311.718 131.337 259.933L141.458 252.634C208.94 203.969 302.73 236.159 314.746 312.109L318.702 337.116C327.44 392.348 390.542 420.917 445.202 394.389V394.389" stroke="#FFD6A6" stroke-width="0.653416"/>
<path d="M-58.5562 192.947L-56.7334 203.893C-43.2961 284.58 56.5369 318.428 128.345 266.643L138.466 259.344C205.948 210.679 299.737 242.869 311.753 318.819L315.71 343.826C324.448 399.057 387.55 427.627 442.21 401.099V401.099" stroke="#FFD6A6" stroke-width="0.653416"/>
<path d="M-61.5445 199.657L-59.7216 210.602C-46.2844 291.289 53.5486 325.138 125.356 273.352L135.477 266.054C202.96 217.388 296.749 249.578 308.765 325.529L312.722 350.536C321.46 405.767 384.562 434.337 439.222 407.809V407.809" stroke="#FFD6A6" stroke-width="0.653416"/>
<path d="M-64.5386 206.366L-62.7158 217.312C-49.2786 297.999 50.5544 331.847 122.362 280.062L132.483 272.763C199.965 224.098 293.755 256.288 305.771 332.238L309.727 357.245C318.465 412.477 381.568 441.046 436.227 414.518V414.518" stroke="#FFD6A6" stroke-width="0.653416"/>
<path d="M-67.525 213.076L-65.7021 224.021C-52.2649 304.709 47.5681 338.557 119.376 286.772L129.497 279.473C196.979 230.807 290.769 262.997 302.785 338.948L306.741 363.955C315.479 419.186 378.581 447.756 433.241 421.228V421.228" stroke="#FFD6A6" stroke-width="0.653416"/>
<path d="M-70.5191 219.786L-68.6963 230.731C-55.259 311.418 44.574 345.266 116.382 293.481L126.503 286.183C193.985 237.517 287.775 269.707 299.791 345.658L303.747 370.665C312.485 425.896 375.587 454.466 430.247 427.938V427.938" stroke="#FFD6A6" stroke-width="0.653416"/>
<path d="M-73.5054 226.495L-71.6826 237.441C-58.2454 318.128 41.5877 351.976 113.396 300.191L123.516 292.892C190.999 244.227 284.788 276.417 296.804 352.367L300.761 377.374C309.499 432.605 372.601 461.175 427.261 434.647V434.647" stroke="#FFD6A6" stroke-width="0.653416"/>
</g>
<defs>
<filter id="filter0_d_34_6811" x="10.5" y="771.668" width="416" height="140" filterUnits="userSpaceOnUse" color-interpolation-filters="sRGB">
<feFlood flood-opacity="0" result="BackgroundImageFix"/>
<feColorMatrix in="SourceAlpha" type="matrix" values="0 0 0 0 0 0 0 0 0 0 0 0 0 0 0 0 0 0 127 0" result="hardAlpha"/>
<feOffset dx="4" dy="4"/>
<feGaussianBlur stdDeviation="21"/>
<feComposite in2="hardAlpha" operator="out"/>
<feColorMatrix type="matrix" values="0 0 0 0 1 0 0 0 0 1 0 0 0 0 1 0 0 0 0.1 0"/>
<feBlend mode="normal" in2="BackgroundImageFix" result="effect1_dropShadow_34_6811"/>
<feBlend mode="normal" in="SourceGraphic" in2="effect1_dropShadow_34_6811" result="shape"/>
</filter>
<linearGradient id="paint0_linear_34_6811" x1="214.5" y1="809.668" x2="214.5" y2="865.668" gradientUnits="userSpaceOnUse">
<stop stop-color="#9973D4"/>
<stop offset="1" stop-color="#714CB4"/>
</linearGradient>
<clipPath id="clip0_34_6811">
<rect x="0.5" y="0.668213" width="375" height="811.332" fill="white"/>
</clipPath>
</defs>
</svg>
