<svg width="19" height="16" viewBox="0 0 19 16" fill="none" xmlns="http://www.w3.org/2000/svg">
<path fill-rule="evenodd" clip-rule="evenodd" d="M5.85806 0C6.00961 0 6.15494 0.0601997 6.2621 0.167356C6.36925 0.274512 6.42945 0.419847 6.42945 0.571389V14.0482L10.0246 10.4518C10.1319 10.3446 10.2774 10.2843 10.4292 10.2843C10.5809 10.2843 10.7264 10.3446 10.8337 10.4518C10.941 10.5591 11.0013 10.7047 11.0013 10.8564C11.0013 11.0081 10.941 11.1536 10.8337 11.2609L6.26261 15.832C6.20953 15.8853 6.14648 15.9275 6.07706 15.9563C6.00764 15.9851 5.93322 15.9999 5.85806 15.9999C5.78291 15.9999 5.70849 15.9851 5.63907 15.9563C5.56965 15.9275 5.5066 15.8853 5.45352 15.832L0.882411 11.2609C0.775119 11.1536 0.714844 11.0081 0.714844 10.8564C0.714844 10.7047 0.775119 10.5591 0.882411 10.4518C0.989702 10.3446 1.13522 10.2843 1.28695 10.2843C1.43869 10.2843 1.58421 10.3446 1.6915 10.4518L5.28667 14.0482V0.571389C5.28667 0.419847 5.34688 0.274512 5.45403 0.167356C5.56119 0.0601997 5.70652 0 5.85806 0Z" fill="#5D5FEF"/>
<path fill-rule="evenodd" clip-rule="evenodd" d="M13.8568 16C13.7052 16 13.5599 15.9398 13.4527 15.8326C13.3456 15.7255 13.2854 15.5802 13.2854 15.4286V1.95184L9.69021 5.54816C9.58292 5.65545 9.4374 5.71572 9.28567 5.71572C9.13394 5.71572 8.98842 5.65545 8.88113 5.54816C8.77384 5.44087 8.71356 5.29535 8.71356 5.14361C8.71356 4.99188 8.77384 4.84636 8.88113 4.73907L13.4522 0.167961C13.5053 0.11475 13.5684 0.0725327 13.6378 0.0437269C13.7072 0.0149221 13.7816 9.44138e-05 13.8568 9.44138e-05C13.9319 9.44138e-05 14.0064 0.0149221 14.0758 0.0437269C14.1452 0.0725327 14.2082 0.11475 14.2613 0.167961L18.8324 4.73907C18.9397 4.84636 19 4.99188 19 5.14361C19 5.29535 18.9397 5.44087 18.8324 5.54816C18.7251 5.65545 18.5796 5.71572 18.4279 5.71572C18.2762 5.71572 18.1306 5.65545 18.0233 5.54816L14.4282 1.95184V15.4286C14.4282 15.5802 14.368 15.7255 14.2608 15.8326C14.1537 15.9398 14.0083 16 13.8568 16Z" fill="#5D5FEF"/>
</svg>
