<svg width="33" height="33" viewBox="0 0 33 33" fill="none" xmlns="http://www.w3.org/2000/svg">
<rect x="0.5" y="0.734131" width="32" height="32" rx="16" fill="black"/>
<path d="M16.408 3.47808C16.5731 3.27147 16.7776 3.09966 17.0095 2.9726C17.2415 2.84554 17.4964 2.76574 17.7594 2.73784C18.0224 2.70994 18.2883 2.73449 18.5418 2.81005C18.7953 2.88562 19.0312 3.01071 19.236 3.17808L25.76 8.50608C26.1188 8.79902 26.3648 9.20741 26.456 9.66153C26.5471 10.1157 26.4779 10.5873 26.26 10.9961C25.6896 10.8218 25.0964 10.7335 24.5 10.7341H23.9L24.496 10.0541L21.06 7.24808L18.226 10.7361H15.648L19.51 5.98408L17.97 4.72608L13.174 10.7341H10.614L16.408 3.47808ZM21.5 20.7341C21.2348 20.7341 20.9804 20.8394 20.7929 21.027C20.6054 21.2145 20.5 21.4689 20.5 21.7341C20.5 21.9993 20.6054 22.2537 20.7929 22.4412C20.9804 22.6287 21.2348 22.7341 21.5 22.7341H23.5C23.7652 22.7341 24.0196 22.6287 24.2071 22.4412C24.3946 22.2537 24.5 21.9993 24.5 21.7341C24.5 21.4689 24.3946 21.2145 24.2071 21.027C24.0196 20.8394 23.7652 20.7341 23.5 20.7341H21.5ZM6.5 11.7341C6.5 11.4689 6.60536 11.2145 6.79289 11.027C6.98043 10.8394 7.23478 10.7341 7.5 10.7341H8.616L10.206 8.73408H7.5C6.70435 8.73408 5.94129 9.05015 5.37868 9.61276C4.81607 10.1754 4.5 10.9384 4.5 11.7341V23.7341C4.5 25.0602 5.02678 26.3319 5.96447 27.2696C6.90215 28.2073 8.17392 28.7341 9.5 28.7341H24.5C25.5609 28.7341 26.5783 28.3127 27.3284 27.5625C28.0786 26.8124 28.5 25.7949 28.5 24.7341V16.7341C28.5 15.6732 28.0786 14.6558 27.3284 13.9057C26.5783 13.1555 25.5609 12.7341 24.5 12.7341H7.5C7.23478 12.7341 6.98043 12.6287 6.79289 12.4412C6.60536 12.2537 6.5 11.9993 6.5 11.7341ZM6.5 23.7341V14.5641C6.812 14.6741 7.15 14.7341 7.5 14.7341H24.5C25.0304 14.7341 25.5391 14.9448 25.9142 15.3199C26.2893 15.6949 26.5 16.2036 26.5 16.7341V24.7341C26.5 25.2645 26.2893 25.7732 25.9142 26.1483C25.5391 26.5234 25.0304 26.7341 24.5 26.7341H9.5C8.70435 26.7341 7.94129 26.418 7.37868 25.8554C6.81607 25.2928 6.5 24.5297 6.5 23.7341Z" fill="white"/>
</svg>
